<?xml version="1.0" encoding="UTF-8" standalone="no"?>
<svg
   xmlns:dc="http://purl.org/dc/elements/1.1/"
   xmlns:cc="http://creativecommons.org/ns#"
   xmlns:rdf="http://www.w3.org/1999/02/22-rdf-syntax-ns#"
   xmlns:svg="http://www.w3.org/2000/svg"
   xmlns="http://www.w3.org/2000/svg"
   xmlns:sodipodi="http://sodipodi.sourceforge.net/DTD/sodipodi-0.dtd"
   xmlns:inkscape="http://www.inkscape.org/namespaces/inkscape"
   inkscape:version="1.0 (4035a4fb49, 2020-05-01)"
   sodipodi:docname="il-mio-medico-footer-sfondo.svg"
   id="svg24"
   version="1.1"
   viewBox="0 0 4767.4937 776.25216"
   height="776.2522"
   width="4767.4937">
  <metadata
     id="metadata28">
    <rdf:RDF>
      <cc:Work
         rdf:about="">
        <dc:format>image/svg+xml</dc:format>
        <dc:type
           rdf:resource="http://purl.org/dc/dcmitype/StillImage" />
      </cc:Work>
    </rdf:RDF>
  </metadata>
  <sodipodi:namedview
     inkscape:current-layer="svg24"
     inkscape:window-maximized="1"
     inkscape:window-y="-8"
     inkscape:window-x="-8"
     inkscape:cy="377.96818"
     inkscape:cx="2942.5234"
     inkscape:zoom="0.24409962"
     showgrid="false"
     id="namedview26"
     inkscape:window-height="705"
     inkscape:window-width="1366"
     inkscape:pageshadow="2"
     inkscape:pageopacity="0"
     guidetolerance="10"
     gridtolerance="10"
     objecttolerance="10"
     borderopacity="1"
     bordercolor="#666666"
     pagecolor="#ffffff" />
  <defs
     id="defs16">
    <style
       id="style2">.a{fill:url(#a);}.b{fill:url(#b);}</style>
    <linearGradient
       y1="8935.2765"
       gradientTransform="scale(2.681045,0.37298889)"
       gradientUnits="userSpaceOnUse"
       y2="10713.499"
       x2="6015.5624"
       x1="6015.5624"
       id="a">
      <stop
         id="stop4"
         stop-color="#90ceff"
         offset="0" />
      <stop
         id="stop6"
         stop-color="#038ff8"
         offset="1" />
    </linearGradient>
    <linearGradient
       gradientTransform="scale(2.5487636,0.3923471)"
       gradientUnits="userSpaceOnUse"
       y2="1872.777"
       x2="894.17796"
       y1="740.60866"
       x1="868.40502"
       id="b">
      <stop
         id="stop9"
         stop-color="#006cb4"
         offset="0" />
      <stop
         id="stop11"
         stop-color="#b141aa"
         offset="1" />
      <stop
         id="stop13"
         stop-color="#e634a7"
         offset="1" />
    </linearGradient>
  </defs>
  <g
     id="g22"
     transform="translate(123.75301,-1166.7588)">
    <path
       style="fill:url(#a)"
       id="path18"
       transform="translate(-13868,-2166)"
       d="m 13768.416,3682.659 c 14.477,-32.978 -33.144,-249.633 155.256,-283.468 188.4,-33.835 546.078,-100.362 960.188,-45.516 414.11,54.846 824.672,119.57 1242.063,53.119 417.391,-66.451 775.719,-75.677 1333.125,21.666 557.406,97.343 425.984,-68.394 788.7,-58.939 362.716,9.455 268.311,532.787 198.938,546.695 -69.373,13.908 -653.922,-71.3 -938.562,-48.534 -284.64,22.766 -852,105.243 -1320.25,78.215 -468.25,-27.028 -1302.3,78.364 -1582.547,42.646 -280.247,-35.718 -713.162,21.085 -809.77,-75.522 -96.608,-96.607 -27.141,-230.362 -27.141,-230.362 z"
       class="a" />
    <path
       style="fill:url(#b)"
       id="path20"
       transform="matrix(-0.998,-0.07,0.07,-0.998,4496.375,2013.36)"
       d="m 2637.174,2.448 c 12.986,-3.332 1058.46,-49.9 1908.2,-49.9 76.954,129.934 -10.325,188.569 23.749,339.622 -306.2,58.664 -401.559,106.065 -648.419,140.772 -267.27,10.623 -354.1,-111.325 -499.551,-91.964 -198.422,31.574 -310.349,140.006 -731.608,138.238 -330.8,15.17 -272.311,99.977 -770.4,82.259 -415.364,-3.607 -639.074,204.4 -1271.124,65.493 C 334.393,579.729 306.183,665.921 7,639.639 -222.761,335.739 -85.79,130.886 92.767,76.12 139.793,61.7 266.2,61.459 319.369,50.444 499.794,12.769 2401.066,63.012 2637.174,2.448 Z"
       class="b" />
  </g>
</svg>
