<svg xmlns="http://www.w3.org/2000/svg" width="209.386" height="438.021" viewBox="0 0 209.386 438.021">
  <g id="Raggruppa_11215" data-name="Raggruppa 11215" transform="translate(-168.932 -29.213)">
    <path id="Tracciato_60332" data-name="Tracciato 60332" d="M376.624,255.247c-1.4-.873-.573-.357,0,0-4.456-2.789-7.324-7.988-10.805-11.834-1.669-1.844-3.521-3.625-6-4.187-.782-.177-2.629.066-3.091-.374a6.463,6.463,0,0,1-.79-1.732c-.315-.736-.609-1.482-.888-2.234a70.482,70.482,0,0,1-3.819-16.733c-.382-3.449-.564-6.884-1.2-10.3a92.584,92.584,0,0,0-5.019-17.186c-.867-2.184-1.66-4.816-2.986-6.756a14.33,14.33,0,0,1-2.428-4.546c-.717-2.706-.39-5.851-.583-8.65-.2-2.941-.5-5.876-.877-8.8-.724-5.656-1.672-11.3-2.945-16.852a12.931,12.931,0,0,1,.087-4.011q.182-2.267.223-4.543a60.752,60.752,0,0,0-.435-8.778c-.676-5.313-3.8-10.082-6.565-14.519-3.009-4.832-7.879-6.791-13.233-7.828a56.219,56.219,0,0,0-8.544-.931q-2.08-.08-4.164-.03a2.083,2.083,0,0,1-1.738-.562c-.558-.43-1.132-.841-1.709-1.245-2.342-1.636-4.768-3.149-7.2-4.644q-.982-.6-1.969-1.2c-.328-.2-1.148-.473-1.319-.8a2.348,2.348,0,0,1-.072-.661l-.83-7.714q-.18-1.674-.36-3.346a2.022,2.022,0,0,1-.07-.64c.06-.153.471-.326.629-.438a7.978,7.978,0,0,0,1.532-1.406,14.326,14.326,0,0,0,2.1-4.72q1.16-3.438,2.085-6.953C296.294,60,297.6,47.554,291.869,38.219a18.528,18.528,0,0,0-11.318-8.268,32.849,32.849,0,0,0-10-.569c-4.682.616-9.478,2.3-12.79,5.791-3.581,3.776-5.237,8.881-5.927,13.984-1.377,10.173,1.154,20.169,4.486,29.706a9.111,9.111,0,0,0,1.483,2.915,7.608,7.608,0,0,0,1.209,1.172c.164.127.892.5.961.682a6.844,6.844,0,0,1-.232,2.155q-.442,4.1-.884,8.207a6.878,6.878,0,0,1-.213,1.976c-.171.326-.991.6-1.319.8q-.986.6-1.969,1.2-1.851,1.138-3.685,2.307c-1.184.758-2.361,1.53-3.514,2.336-.513.358-1.022.723-1.521,1.1a2.353,2.353,0,0,1-1.926.705,64.574,64.574,0,0,0-8.655.356c-5.11.56-11.1,1.66-14.981,5.388-1.828,1.757-3.079,4.23-4.35,6.412a45.333,45.333,0,0,0-3.665,7.454,28.411,28.411,0,0,0-1.24,8.318,70.216,70.216,0,0,0,.172,8.7,12.9,12.9,0,0,1,.088,4.011q-.5,2.181-.927,4.378-.825,4.2-1.456,8.43a154.3,154.3,0,0,0-1.683,17.527c-.094,2.736-.328,5.163-1.93,7.473a24.292,24.292,0,0,0-2.335,4.219,89.957,89.957,0,0,0-7.437,28.047,82.238,82.238,0,0,1-2.842,16q-.563,1.894-1.249,3.746c-.25.677-.513,1.349-.792,2.014a6.887,6.887,0,0,1-.885,1.952c-.462.44-2.309.2-3.091.374a8.567,8.567,0,0,0-3.436,1.7c-4.2,3.336-6.933,8.294-10.7,12.086a19.68,19.68,0,0,1-2.672,2.234,3.189,3.189,0,0,0-1.71,2.32c-.054,1.849,1.881,2.328,3.305,2.214a11.612,11.612,0,0,0,4.937-1.512,12.787,12.787,0,0,0,2.43-2.069c.6-.6,1.409-1.679,2.281-1.894a24.665,24.665,0,0,1-2.454,5.5q-1.7,3.324-3.552,6.57c-.972,1.7-3.081,4.153-2.2,6.212,1.6,3.734,5.122-.953,6.234-2.485.942-1.3,1.772-2.685,2.68-4.01a14.1,14.1,0,0,1,2.719-3.414,12.581,12.581,0,0,1-.87,3.65c-.45,1.418-.952,2.818-1.464,4.214-.813,2.213-2.451,5.259-1.852,7.663A2.135,2.135,0,0,0,184.2,279.8c1.375-.789,2.062-2.717,2.653-4.1,1.407-3.3,2.41-6.76,3.8-10.066.145,2.931-.429,5.847-.531,8.769-.051,1.43-.186,3.591.906,4.71a2.015,2.015,0,0,0,3.219-.679c.983-1.781.8-4.316.979-6.308.14-1.532.273-3.068.482-4.593.089-.648.127-2.643.8-3.009.745.721.156,3.364.066,4.275a22.076,22.076,0,0,0-.109,5.13c.214,1.546,1.517,3.518,3.168,2.127,1.063-.9,1.342-2.686,1.5-3.994.18-1.5.147-3.019.28-4.521.186-2.1.447-4.2.634-6.3a10.331,10.331,0,0,1,.82-2.762c.617-1.657,1.184-3.336,1.658-5.041a19.882,19.882,0,0,0,.929-5.283,7.246,7.246,0,0,0-.174-1.655c-.08-.333-.457-.89-.453-1.205a9,9,0,0,1,.986-2.488c1.708-4.16,3.62-8.242,5.609-12.269,4.714-9.541,9.919-18.86,13.138-29.077,1.712-5.436,2.428-11.052,3.848-16.553a145.284,145.284,0,0,1,4.784-14.7l2.033,7.982a43.208,43.208,0,0,1,1.578,6.325c.22,2.377-.032,4.9-.048,7.283q-.037,5.662-.074,11.325a53.077,53.077,0,0,0-.042,6.437,14.013,14.013,0,0,0,.873,2.539c.539,1.627-.424,4.111-.732,5.817-.676,3.746-1.3,7.5-1.832,11.272-2.147,15.2-1.231,30.825-.24,46.1a234.111,234.111,0,0,0,7.262,45c1.691,6.369,3.569,12.68,3.719,19.325.128,5.641-1.126,11.163-2.43,16.607a63.521,63.521,0,0,0-1.786,22.548c.871,7.392,2.991,14.556,5.108,21.659q3.019,10.135,6.089,20.256c1.588,5.258,3.229,10.508,4.565,15.84.433,1.732,1.193,3.955.869,5.73-.551,3.022-2.521,6.191-4.064,8.784-1.526,2.562-3.273,5.205-5.755,6.9a5.09,5.09,0,0,0-2.1,1.992c-.662,1.531.549,2.778,1.837,3.383a19.846,19.846,0,0,0,3.885.959,36.57,36.57,0,0,0,5.825.987,17.033,17.033,0,0,0,2.4.049c.793-.05,1.581-.438,2.334-.489a.493.493,0,0,0,.223-.049,1.021,1.021,0,0,0,.281.294c.314.262.5.653.847.914a6.529,6.529,0,0,0,2.477.986c3.22.73,6.113-.206,7.35-3.513a5.355,5.355,0,0,0,4.946,3.8c1.942.047,5.044-.5,5.8-2.622,2.764,1.446,6.617.576,9.505-.026,1.443-.3,2.968-.517,4.373-.923,1.211-.349,2.687-1.121,2.95-2.5.42-2.19-2.821-3.5-4.082-4.776a33.543,33.543,0,0,1-5.609-8.43c-1.179-2.324-2.675-4.855-2.315-7.546a53.954,53.954,0,0,1,1.608-6.941c1.231-4.509,2.611-8.974,3.962-13.447q3.038-10.058,6.048-20.124c2.089-7.025,4.159-14.117,4.986-21.431a62.482,62.482,0,0,0-1.716-21.838c-1.339-5.586-2.66-11.243-2.531-17.034.141-6.321,1.865-12.329,3.48-18.389,1.9-7.116,3.563-14.266,4.746-21.544s1.933-14.571,2.566-21.906c.649-7.54.93-15.142,1.065-22.707.132-7.334.3-14.624-.7-21.9-.5-3.592-1.124-7.164-1.81-10.723q-.54-2.81-1.135-5.608-.271-1.273-.552-2.544a6.056,6.056,0,0,1-.055-2.828c.469-2.73.178-5.681.159-8.452q-.057-8.433-.118-16.866a15.174,15.174,0,0,1,.893-4.806l2.959-10.03.618-2.1q2.266,5.9,4.105,11.954c1.5,4.932,2.21,9.989,3.424,14.986,2.546,10.483,7.32,20.243,12.255,29.742q3.482,6.7,6.558,13.6a29.359,29.359,0,0,1,2.249,5.4c.153.734-.285,1.389-.4,2.183a10.471,10.471,0,0,0,.116,3.116,51.3,51.3,0,0,0,2.92,9.653,16.7,16.7,0,0,1,.571,4.056c.209,2,.464,4.017.53,6.03a13.654,13.654,0,0,0,.712,4.723c.672,1.666,2.7,2.808,3.719.639.771-1.648.487-4.006.31-5.777-.09-.906-.188-1.812-.236-2.721-.028-.518-.246-1.8.152-2.239.708.318.782,2.354.871,2.984.218,1.514.349,3.04.489,4.562.184,2.006,0,4.546.982,6.341a2.021,2.021,0,0,0,3.083.8c1.192-1.016,1.087-3.195,1.051-4.607-.078-3-.69-5.986-.541-8.994,1.4,3.306,2.4,6.765,3.805,10.067.595,1.4,1.32,3.483,2.781,4.183a2.179,2.179,0,0,0,2.965-1.818c.484-2.467-1.12-5.449-1.95-7.714-.847-2.311-2.272-5.156-2.263-7.668,2,1.5,3.343,4.357,4.711,6.42,1.1,1.659,3.75,6.253,6.186,4.423,2.239-1.681-.089-4.785-1.095-6.51-1.185-2.035-2.308-4.114-3.4-6.2-1.054-2.02-2.468-4.241-2.972-6.5,1.571.387,2.818,2.648,4.111,3.574a10.935,10.935,0,0,0,4.571,1.778c1.173.2,2.549.382,3.524-.479C379.1,257.84,378,256.108,376.624,255.247Zm-100.7,97.5c-.218,3.78-.833,7.532-1.138,11.306-.44,5.455-.388,10.929-.6,16.394q-.2,5.088,0,10.177c.154,3.815.621,7.6.8,11.415.4,8.655-.524,17.335-1.338,25.938a208.73,208.73,0,0,1-1.434-23.642c.07-3.885.55-7.741.766-11.617.224-4,.271-8.019.11-12.026-.256-6.417-.157-12.843-.764-19.242-.213-2.245-.511-4.479-.768-6.718a20.882,20.882,0,0,1-.071-6.67c.459-2.1,1.328-4.025,1.6-6.194a29.925,29.925,0,0,0,0-6.753c-.519-5.106.061-10.033.558-15.122.409,3.888,1.156,7.928.9,11.847-.243,3.688-1.094,7.131-.451,10.854a20.02,20.02,0,0,0,1.29,4.331A12.952,12.952,0,0,1,275.928,352.751Z" transform="translate(0 0)" fill="#fff"/>
    <g id="Raggruppa_11215-2" data-name="Raggruppa 11215" transform="translate(-0.062 0.034)">
      <path id="Tracciato_60357" data-name="Tracciato 60357" d="M376.6,255.2c-1.4-.8-.5-.3,0,0-4.5-2.8-7.3-8-10.8-11.8-1.7-1.8-3.5-3.6-6-4.2-.8-.2-2.6.1-3.1-.4a8.865,8.865,0,0,1-.8-1.7c-.3-.7-.6-1.5-.9-2.2a73.536,73.536,0,0,1-3.8-16.7c-.4-3.4-.6-6.9-1.2-10.3a94.025,94.025,0,0,0-5-17.2,41.305,41.305,0,0,0-3-6.8,14.018,14.018,0,0,1-2.4-4.5c-.7-2.7-.4-5.9-.6-8.6-.2-2.9-.5-5.9-.9-8.8-.7-5.7-1.7-11.3-2.9-16.9a10.77,10.77,0,0,1,.1-4c.1-1.5.2-3,.2-4.5a64.809,64.809,0,0,0-.4-8.8c-.7-5.3-3.8-10.1-6.6-14.5-3-4.8-7.9-6.8-13.2-7.8a61.3,61.3,0,0,0-8.5-.9,29.438,29.438,0,0,0-4.2,0,1.832,1.832,0,0,1-1.7-.6c-.6-.4-1.1-.8-1.7-1.2-2.3-1.6-4.8-3.1-7.2-4.6-.7-.4-1.3-.8-2-1.2-.3-.2-1.1-.5-1.3-.8a1.483,1.483,0,0,1-.1-.7l-.8-7.7c-.1-1.1-.2-2.2-.4-3.3a1.268,1.268,0,0,1-.1-.6c.1-.2.5-.3.6-.4a6.73,6.73,0,0,0,1.5-1.4,13.306,13.306,0,0,0,2.1-4.7c.8-2.3,1.5-4.6,2.1-7,2.7-10.1,4-22.5-1.8-31.9a18.686,18.686,0,0,0-11.3-8.3,33.7,33.7,0,0,0-10-.6c-4.7.6-9.5,2.3-12.8,5.8-3.6,3.8-5.2,8.9-5.9,14-1.4,10.2,1.2,20.2,4.5,29.7a8.03,8.03,0,0,0,1.5,2.9l1.2,1.2a3.591,3.591,0,0,1,1,.7,8.2,8.2,0,0,1-.2,2.2c-.3,2.7-.6,5.5-.9,8.2a6.8,6.8,0,0,1-.2,2c-.2.3-1,.6-1.3.8-.7.4-1.3.8-2,1.2-1.2.8-2.5,1.5-3.7,2.3s-2.4,1.5-3.5,2.3c-.5.4-1,.7-1.5,1.1a2.28,2.28,0,0,1-1.9.7,50.714,50.714,0,0,0-8.7.4c-5.1.6-11.1,1.7-15,5.4a31.6,31.6,0,0,0-4.4,6.4,52.216,52.216,0,0,0-3.7,7.5,29.234,29.234,0,0,0-1.2,8.3,63.2,63.2,0,0,0,.2,8.7,13.421,13.421,0,0,1,.1,4c-.3,1.5-.6,2.9-.9,4.4-.6,2.8-1,5.6-1.5,8.4a148.033,148.033,0,0,0-1.7,17.5c-.1,2.7-.3,5.2-1.9,7.5a21.347,21.347,0,0,0-2.3,4.2,88.627,88.627,0,0,0-7.4,28,86.454,86.454,0,0,1-2.8,16c-.4,1.3-.8,2.5-1.2,3.7a16.672,16.672,0,0,1-.8,2,7.218,7.218,0,0,1-.9,2c-.5.4-2.3.2-3.1.4a8.393,8.393,0,0,0-3.4,1.7c-4.2,3.3-6.9,8.3-10.7,12.1a14.421,14.421,0,0,1-2.7,2.2,3.331,3.331,0,0,0-1.7,2.3c-.1,1.8,1.9,2.3,3.3,2.2a10.784,10.784,0,0,0,4.9-1.5,12.064,12.064,0,0,0,2.4-2.1c.6-.6,1.4-1.7,2.3-1.9a22.718,22.718,0,0,1-2.5,5.5q-1.65,3.3-3.6,6.6c-1,1.7-3.1,4.2-2.2,6.2,1.6,3.7,5.1-1,6.2-2.5.9-1.3,1.8-2.7,2.7-4a12.665,12.665,0,0,1,2.7-3.4,10.592,10.592,0,0,1-.9,3.6c-.4,1.4-1,2.8-1.5,4.2-.8,2.2-2.5,5.3-1.9,7.7a2.067,2.067,0,0,0,2.4,1.8,2.544,2.544,0,0,0,.7-.2c1.4-.8,2.1-2.7,2.7-4.1,1.4-3.3,2.4-6.8,3.8-10.1.1,2.9-.4,5.8-.5,8.8-.1,1.4-.2,3.6.9,4.7a1.933,1.933,0,0,0,2.8-.1,2.092,2.092,0,0,0,.4-.6c1-1.8.8-4.3,1-6.3.1-1.5.3-3.1.5-4.6.1-.6.1-2.6.8-3,.7.7.2,3.4.1,4.3a21.763,21.763,0,0,0-.1,5.1c.2,1.5,1.5,3.5,3.2,2.1,1.1-.9,1.3-2.7,1.5-4,.2-1.5.1-3,.3-4.5l.6-6.3a9.006,9.006,0,0,1,.8-2.8c.6-1.7,1.2-3.3,1.7-5a19,19,0,0,0,.9-5.3,9.853,9.853,0,0,0-.2-1.7,6.117,6.117,0,0,1-.5-1.2,7.714,7.714,0,0,1,1-2.5c1.7-4.2,3.6-8.2,5.6-12.3,4.7-9.5,9.9-18.9,13.1-29.1,1.7-5.4,2.4-11.1,3.8-16.6a126.153,126.153,0,0,1,4.8-14.7l2,8a48.488,48.488,0,0,1,1.6,6.3c.2,2.4,0,4.9,0,7.3,0,3.8,0,7.5-.1,11.3a45.567,45.567,0,0,0,0,6.4,10.64,10.64,0,0,0,.9,2.5c.5,1.6-.4,4.1-.7,5.8-.7,3.7-1.3,7.5-1.8,11.3-2.1,15.2-1.2,30.8-.2,46.1a235.973,235.973,0,0,0,7.3,45c1.7,6.4,3.6,12.7,3.7,19.3.1,5.6-1.1,11.2-2.4,16.6a65.616,65.616,0,0,0-1.8,22.5c.9,7.4,3,14.6,5.1,21.7,2,6.8,4,13.5,6.1,20.3,1.6,5.3,3.2,10.5,4.6,15.8.4,1.7,1.2,4,.9,5.7-.6,3-2.5,6.2-4.1,8.8a20.394,20.394,0,0,1-5.8,6.9,4.513,4.513,0,0,0-2.1,2c-.7,1.5.5,2.8,1.8,3.4a27.928,27.928,0,0,0,3.9,1,39.112,39.112,0,0,0,5.8,1,9.637,9.637,0,0,0,2.4,0,15.535,15.535,0,0,0,2.3-.5h.2l.3.3a7.271,7.271,0,0,0,.8.9,6.913,6.913,0,0,0,2.5,1c3.2.7,6.1-.2,7.4-3.5a5.453,5.453,0,0,0,4.9,3.8c1.9,0,5-.5,5.8-2.6,2.8,1.4,6.6.6,9.5,0,1.4-.3,3-.5,4.4-.9,1.2-.3,2.7-1.1,3-2.5.4-2.2-2.8-3.5-4.1-4.8a33.3,33.3,0,0,1-5.6-8.4c-1.2-2.3-2.7-4.9-2.3-7.5a53.173,53.173,0,0,1,1.6-6.9c1.2-4.5,2.6-9,4-13.4l6-20.1c2.1-7,4.2-14.1,5-21.4a64.017,64.017,0,0,0-1.7-21.8c-1.3-5.6-2.7-11.2-2.5-17,.1-6.3,1.9-12.3,3.5-18.4a201.231,201.231,0,0,0,4.7-21.5c1.1-7.2,1.9-14.6,2.6-21.9.6-7.5.9-15.1,1.1-22.7.1-7.3.3-14.6-.7-21.9-.5-3.6-1.1-7.2-1.8-10.7-.4-1.9-.7-3.7-1.1-5.6-.2-.8-.4-1.7-.6-2.5a6.621,6.621,0,0,1-.1-2.8c.5-2.7.2-5.7.2-8.5,0-5.6-.1-11.2-.1-16.9a13.186,13.186,0,0,1,.9-4.8l3-10,.6-2.1c1.5,3.9,2.9,7.9,4.1,12,1.5,4.9,2.2,10,3.4,15,2.5,10.5,7.3,20.2,12.3,29.7,2.3,4.5,4.5,9,6.6,13.6a25.5,25.5,0,0,1,2.2,5.4c.2.7-.3,1.4-.4,2.2a10.75,10.75,0,0,0,.1,3.1,56.728,56.728,0,0,0,2.9,9.7,18.441,18.441,0,0,1,.6,4.1c.2,2,.5,4,.5,6a14.874,14.874,0,0,0,.7,4.7c.7,1.7,2.7,2.8,3.7.6.8-1.6.5-4,.3-5.8a24.517,24.517,0,0,1-.2-2.7c0-.5-.2-1.8.2-2.2.7.3.8,2.4.9,3,.2,1.5.3,3,.5,4.6.2,2,0,4.5,1,6.3a1.983,1.983,0,0,0,2.7,1c.2-.1.3-.1.4-.2,1.2-1,1.1-3.2,1.1-4.6-.1-3-.7-6-.5-9,1.4,3.3,2.4,6.8,3.8,10.1.6,1.4,1.3,3.5,2.8,4.2a2.18,2.18,0,0,0,2.8-1.2,1.268,1.268,0,0,0,.1-.6c.5-2.5-1.1-5.4-2-7.7-.8-2.3-2.3-5.2-2.3-7.7,2,1.5,3.3,4.4,4.7,6.4,1.1,1.7,3.8,6.3,6.2,4.4,2.2-1.7-.1-4.8-1.1-6.5-1.2-2-2.3-4.1-3.4-6.2-1.1-2-2.5-4.2-3-6.5,1.6.4,2.8,2.6,4.1,3.6a12.3,12.3,0,0,0,4.6,1.8c1.2.2,2.5.4,3.5-.5C379.1,257.8,378,256.1,376.6,255.2ZM275.9,352.7c-.2,3.8-.8,7.5-1.1,11.3-.4,5.5-.4,10.9-.6,16.4q-.15,5.1,0,10.2c.2,3.8.6,7.6.8,11.4.4,8.7-.5,17.3-1.3,25.9a206.184,206.184,0,0,1-1.4-23.6c.1-3.9.5-7.7.8-11.6.2-4,.3-8,.1-12-.3-6.4-.2-12.8-.8-19.2-.2-2.2-.5-4.5-.8-6.7a21.515,21.515,0,0,1-.1-6.7,62.551,62.551,0,0,0,1.6-6.2,25.8,25.8,0,0,0,0-6.8c-.5-5.1.1-10,.6-15.1.4,3.9,1.2,7.9.9,11.8-.2,3.7-1.1,7.1-.5,10.9a21.34,21.34,0,0,0,1.3,4.3,12.34,12.34,0,0,1,.5,5.7Z" fill="#fff"/>
      <path id="Tracciato_60358" data-name="Tracciato 60358" d="M258.4,79.6ZM376.6,255.2h0C377.3,255.7,377,255.5,376.6,255.2Zm-191.1-2.3c5,.6,9.5-3.8,10.5-8.5-.3.4-.5.7-.8,1.1-2.1,3.5-6,6-9.7,7.4ZM357.8,251c-.2-.2-.2-.1-.1-.1a26.336,26.336,0,0,1-6.4-6.5c.9,4.7,5.5,9.1,10.5,8.5a26.4,26.4,0,0,1-3.8-1.8s.1,0-.2-.1Zm18.4,7.5Zm-18.3-7.4a.349.349,0,0,1-.2-.1l.1.1s.1-.1.1,0Zm18.7,4.1c-1.4-.8-.5-.3,0,0-4.5-2.8-7.3-8-10.8-11.8-1.7-1.8-3.5-3.6-6-4.2-.8-.2-2.6.1-3.1-.4a8.865,8.865,0,0,1-.8-1.7c-.3-.7-.6-1.5-.9-2.2a73.536,73.536,0,0,1-3.8-16.7c-.4-3.4-.6-6.9-1.2-10.3a94.025,94.025,0,0,0-5-17.2,41.305,41.305,0,0,0-3-6.8,14.018,14.018,0,0,1-2.4-4.5c-.7-2.7-.4-5.9-.6-8.6-.2-2.9-.5-5.9-.9-8.8-.7-5.7-1.7-11.3-2.9-16.9a10.77,10.77,0,0,1,.1-4c.1-1.5.2-3,.2-4.5a64.809,64.809,0,0,0-.4-8.8c-.7-5.3-3.8-10.1-6.6-14.5-3-4.8-7.9-6.8-13.2-7.8a61.3,61.3,0,0,0-8.5-.9,29.438,29.438,0,0,0-4.2,0,1.832,1.832,0,0,1-1.7-.6c-.6-.4-1.1-.8-1.7-1.2-2.3-1.6-4.8-3.1-7.2-4.6-.7-.4-1.3-.8-2-1.2-.3-.2-1.1-.5-1.3-.8a1.483,1.483,0,0,1-.1-.7l-.8-7.7-.4-3.3a1.268,1.268,0,0,1-.1-.6c.1-.2.5-.3.6-.4a6.73,6.73,0,0,0,1.5-1.4,13.306,13.306,0,0,0,2.1-4.7c.8-2.3,1.5-4.6,2.1-7,2.7-10.1,4-22.5-1.8-31.9a18.686,18.686,0,0,0-11.3-8.3,33.7,33.7,0,0,0-10-.6c-4.7.6-9.5,2.3-12.8,5.8-3.6,3.8-5.2,8.9-5.9,14-1.4,10.2,1.2,20.2,4.5,29.7a8.03,8.03,0,0,0,1.5,2.9l1.2,1.2a3.591,3.591,0,0,1,1,.7,8.2,8.2,0,0,1-.2,2.2c-.3,2.7-.6,5.5-.9,8.2a6.8,6.8,0,0,1-.2,2c-.2.3-1,.6-1.3.8-.7.4-1.3.8-2,1.2-1.2.8-2.5,1.5-3.7,2.3s-2.4,1.5-3.5,2.3c-.5.4-1,.7-1.5,1.1a2.28,2.28,0,0,1-1.9.7,50.714,50.714,0,0,0-8.7.4c-5.1.6-11.1,1.7-15,5.4a31.6,31.6,0,0,0-4.4,6.4,52.216,52.216,0,0,0-3.7,7.5,29.234,29.234,0,0,0-1.2,8.3,63.2,63.2,0,0,0,.2,8.7,13.421,13.421,0,0,1,.1,4c-.3,1.5-.6,2.9-.9,4.4-.6,2.8-1,5.6-1.5,8.4a148.033,148.033,0,0,0-1.7,17.5c-.1,2.7-.3,5.2-1.9,7.5a21.347,21.347,0,0,0-2.3,4.2,88.627,88.627,0,0,0-7.4,28,86.454,86.454,0,0,1-2.8,16c-.4,1.3-.8,2.5-1.2,3.7a16.672,16.672,0,0,1-.8,2,7.218,7.218,0,0,1-.9,2c-.5.4-2.3.2-3.1.4a8.393,8.393,0,0,0-3.4,1.7c-4.2,3.3-6.9,8.3-10.7,12.1a14.421,14.421,0,0,1-2.7,2.2,3.331,3.331,0,0,0-1.7,2.3c-.1,1.8,1.9,2.3,3.3,2.2a10.784,10.784,0,0,0,4.9-1.5,12.064,12.064,0,0,0,2.4-2.1c.6-.6,1.4-1.7,2.3-1.9a22.718,22.718,0,0,1-2.5,5.5q-1.65,3.3-3.6,6.6c-1,1.7-3.1,4.2-2.2,6.2,1.6,3.7,5.1-1,6.2-2.5.9-1.3,1.8-2.7,2.7-4a12.665,12.665,0,0,1,2.7-3.4,10.592,10.592,0,0,1-.9,3.6c-.4,1.4-1,2.8-1.5,4.2-.8,2.2-2.5,5.3-1.9,7.7a2.067,2.067,0,0,0,2.4,1.8,2.544,2.544,0,0,0,.7-.2c1.4-.8,2.1-2.7,2.7-4.1,1.4-3.3,2.4-6.8,3.8-10.1.1,2.9-.4,5.8-.5,8.8-.1,1.4-.2,3.6.9,4.7a1.933,1.933,0,0,0,2.8-.1,2.092,2.092,0,0,0,.4-.6c1-1.8.8-4.3,1-6.3.1-1.5.3-3.1.5-4.6.1-.6.1-2.6.8-3,.7.7.2,3.4.1,4.3a21.763,21.763,0,0,0-.1,5.1c.2,1.5,1.5,3.5,3.2,2.1,1.1-.9,1.3-2.7,1.5-4,.2-1.5.1-3,.3-4.5l.6-6.3a9.006,9.006,0,0,1,.8-2.8c.6-1.7,1.2-3.3,1.7-5a19,19,0,0,0,.9-5.3,9.853,9.853,0,0,0-.2-1.7,6.117,6.117,0,0,1-.5-1.2,7.714,7.714,0,0,1,1-2.5c1.7-4.2,3.6-8.2,5.6-12.3,4.7-9.5,9.9-18.9,13.1-29.1,1.7-5.4,2.4-11.1,3.8-16.6a126.153,126.153,0,0,1,4.8-14.7l2,8a48.488,48.488,0,0,1,1.6,6.3c.2,2.4,0,4.9,0,7.3,0,3.8,0,7.5-.1,11.3a45.567,45.567,0,0,0,0,6.4,10.64,10.64,0,0,0,.9,2.5c.5,1.6-.4,4.1-.7,5.8-.7,3.7-1.3,7.5-1.8,11.3-2.1,15.2-1.2,30.8-.2,46.1a235.973,235.973,0,0,0,7.3,45c1.7,6.4,3.6,12.7,3.7,19.3.1,5.6-1.1,11.2-2.4,16.6a65.616,65.616,0,0,0-1.8,22.5c.9,7.4,3,14.6,5.1,21.7,2,6.8,4,13.5,6.1,20.3,1.6,5.3,3.2,10.5,4.6,15.8.4,1.7,1.2,4,.9,5.7-.6,3-2.5,6.2-4.1,8.8a20.394,20.394,0,0,1-5.8,6.9,4.513,4.513,0,0,0-2.1,2c-.7,1.5.5,2.8,1.8,3.4a27.928,27.928,0,0,0,3.9,1,39.112,39.112,0,0,0,5.8,1,9.637,9.637,0,0,0,2.4,0,15.535,15.535,0,0,0,2.3-.5h.2l.3.3a7.271,7.271,0,0,0,.8.9,6.913,6.913,0,0,0,2.5,1c3.2.7,6.1-.2,7.4-3.5a5.453,5.453,0,0,0,4.9,3.8c1.9,0,5-.5,5.8-2.6,2.8,1.4,6.6.6,9.5,0,1.4-.3,3-.5,4.4-.9,1.2-.3,2.7-1.1,3-2.5.4-2.2-2.8-3.5-4.1-4.8a33.3,33.3,0,0,1-5.6-8.4c-1.2-2.3-2.7-4.9-2.3-7.5a53.173,53.173,0,0,1,1.6-6.9c1.2-4.5,2.6-9,4-13.4l6-20.1c2.1-7,4.2-14.1,5-21.4a64.017,64.017,0,0,0-1.7-21.8c-1.3-5.6-2.7-11.2-2.5-17,.1-6.3,1.9-12.3,3.5-18.4a201.231,201.231,0,0,0,4.7-21.5c1.1-7.2,1.9-14.6,2.6-21.9.6-7.5.9-15.1,1.1-22.7.1-7.3.3-14.6-.7-21.9-.5-3.6-1.1-7.2-1.8-10.7-.4-1.9-.7-3.7-1.1-5.6-.2-.8-.4-1.7-.6-2.5a6.621,6.621,0,0,1-.1-2.8c.5-2.7.2-5.7.2-8.5,0-5.6-.1-11.2-.1-16.9a13.186,13.186,0,0,1,.9-4.8l3-10,.6-2.1c1.5,3.9,2.9,7.9,4.1,12,1.5,4.9,2.2,10,3.4,15,2.5,10.5,7.3,20.2,12.3,29.7,2.3,4.5,4.5,9,6.6,13.6a25.5,25.5,0,0,1,2.2,5.4c.2.7-.3,1.4-.4,2.2a10.75,10.75,0,0,0,.1,3.1,56.728,56.728,0,0,0,2.9,9.7,18.441,18.441,0,0,1,.6,4.1c.2,2,.5,4,.5,6a14.874,14.874,0,0,0,.7,4.7c.7,1.7,2.7,2.8,3.7.6.8-1.6.5-4,.3-5.8a24.517,24.517,0,0,1-.2-2.7c0-.5-.2-1.8.2-2.2.7.3.8,2.4.9,3,.2,1.5.3,3,.5,4.6.2,2,0,4.5,1,6.3a1.983,1.983,0,0,0,2.7,1c.2-.1.3-.1.4-.2,1.2-1,1.1-3.2,1.1-4.6-.1-3-.7-6-.5-9,1.4,3.3,2.4,6.8,3.8,10.1.6,1.4,1.3,3.5,2.8,4.2a2.18,2.18,0,0,0,2.8-1.2,1.268,1.268,0,0,0,.1-.6c.5-2.5-1.1-5.4-2-7.7-.8-2.3-2.3-5.2-2.3-7.7,2,1.5,3.3,4.4,4.7,6.4,1.1,1.7,3.7,6.3,6.2,4.4,2.2-1.7-.1-4.8-1.1-6.5-1.2-2-2.3-4.1-3.4-6.2-1.1-2-2.5-4.2-3-6.5,1.6.4,2.8,2.6,4.1,3.6a12.3,12.3,0,0,0,4.6,1.8c1.2.2,2.5.4,3.5-.5,1.3-1.9.2-3.6-1.2-4.5ZM258.4,79.6c.1.2.3.7,0,0h0a47.483,47.483,0,0,1-1.7-4.9c-.9-3-1.7-6-2.4-9.1a45.816,45.816,0,0,1-.5-17.3c.9-5,2.8-9.9,6.8-13.1,3.7-2.9,8.4-3.9,12.9-4a20.18,20.18,0,0,1,12.4,3.5c4.2,3.1,6.4,8,7.3,13.1a45.78,45.78,0,0,1-.3,17.3,78.983,78.983,0,0,1-4,14.2c-1.1,2.7-4.2,4.1-6.6,5.5-2.5,1.5-5.5,3.5-8.5,3.7-2.9.2-6.2-1.9-8.7-3.4C263,83.8,259.6,82.2,258.4,79.6ZM273.6,428a206.184,206.184,0,0,1-1.4-23.6c.1-3.9.5-7.7.8-11.6.2-4,.3-8,.1-12-.3-6.4-.2-12.8-.8-19.2-.2-2.2-.5-4.5-.8-6.7a21.515,21.515,0,0,1-.1-6.7A62.551,62.551,0,0,0,273,342a25.8,25.8,0,0,0,0-6.8c-.5-5.1.1-10,.6-15.1.4,3.9,1.2,7.9.9,11.8-.2,3.7-1.1,7.1-.5,10.9a21.34,21.34,0,0,0,1.3,4.3,12.225,12.225,0,0,1,.5,5.7c-.2,3.8-.8,7.5-1.1,11.3-.4,5.5-.4,10.9-.6,16.4q-.15,5.1,0,10.2c.2,3.8.6,7.6.8,11.4.5,8.6-.4,17.3-1.3,25.9ZM232.4,164.1a13.329,13.329,0,0,1,.3,2.8,4.612,4.612,0,0,1-.6,2.8c-.6,1.4-1.2,2.9-1.8,4.3a121.538,121.538,0,0,0-3.9,11.6c-1.1,3.9-1.6,8-2.7,11.9a134.237,134.237,0,0,1-9.6,23.6A197.022,197.022,0,0,0,204,244.2c-.4-.4-2.2-1.4-2.3-.2-.1.7.6.6,1,.8,1.4.7,1.5,2.4,1.5,3.7-.2,3.6-1.6,7.2-2.9,10.5a8.735,8.735,0,0,0-.5,2.2c-.2,2.5-.6,5-.7,7.5-.1,1.1,0,2.2-.2,3.3-.1.7-.3,2.4-1,2.8-1.3.9-1.2-3-1.1-3.6,0-2.1.6-4.3.3-6.3-.2-1.4-1.6-2.5-2.6-1.1s-1,3.7-1.2,5.3-.3,3.2-.4,4.7c0,.5-.6,6-2,4a5.278,5.278,0,0,1-.4-2.5c0-1.3.1-2.5.2-3.8a31.2,31.2,0,0,0,.3-6.1c0-.7-.1-1.7-.8-2-1.5-.7-2.4,3.2-2.6,4-.8,2.2-1.5,4.5-2.5,6.7-.4.9-1.5,4.7-2.9,4.6-2.5-.2,1.8-10,2.1-11,.4-1.1,2.3-5.5.7-6.4-.8-.5-1.7.5-2.3,1a43.874,43.874,0,0,0-4,5.6c-.5.8-1.1,1.6-1.7,2.4-.5.7-1.3,2-2.2,2.2-2.3.4.1-3.6.4-4.2,1.1-1.8,2.1-3.6,3.1-5.5A46.323,46.323,0,0,0,183,255c.3-1.1.3-2.4-1.3-2.1-2.1.4-3.4,3.1-5.2,4.2a9.047,9.047,0,0,1-5.1,1.3c-3-.4,1.2-3,1.9-3.6,4.2-3.7,6.9-8.8,11.1-12.5a7.9,7.9,0,0,1,6.4-2,8.648,8.648,0,0,1,2.3.6,5.024,5.024,0,0,0,1.3.5c1.1,0,.8-1,.2-1.4a9.979,9.979,0,0,0-2.9-1,63.816,63.816,0,0,0,5.7-19.1c.7-4.4.9-8.8,1.8-13.2a92.084,92.084,0,0,1,6.3-19,17.036,17.036,0,0,1,1.9-3.5,12.5,12.5,0,0,0,2.2-4.1,8.756,8.756,0,0,0,.7-3.2c0-1.7.1-3.4.2-5.2a157.174,157.174,0,0,1,2.5-20.5c.3-1.7.6-3.4,1-5.1a9.61,9.61,0,0,0,.3-3.4,67.723,67.723,0,0,1-.4-10.1,29.217,29.217,0,0,1,1.5-9.3,61.024,61.024,0,0,1,4.7-8.7,14.134,14.134,0,0,1,6.2-5.9,32.22,32.22,0,0,1,9.1-2.4c7.4-1,15-.5,22.4-.4l-9.9-1.4c1.8-1.4,3.7-2.6,5.5-3.8,1.1-.7,2.2-1.5,3.3-2.2a13.748,13.748,0,0,0,3-1.9c.4-.4.3-.7.4-1.3.3-3.8.7-7.6,1-11.4a52.57,52.57,0,0,0,6.5,3.8,10.674,10.674,0,0,0,12.3-.1,61.118,61.118,0,0,0,6.5-3.8c.3,3.8.7,7.6,1,11.4.1.6,0,.9.4,1.3a15.28,15.28,0,0,0,3,1.9c1,.6,2,1.3,2.9,1.9,2,1.3,4,2.7,6,4.1l-9.9,1.4c5.9-.1,11.8-.4,17.7-.1,5.8.3,13.1,1.1,17.5,5.3,2.2,2.1,3.7,5.4,5.2,8a23.713,23.713,0,0,1,3.2,8.5,55.742,55.742,0,0,1,.3,10c-.1,1.7-.2,3.4-.4,5a9.82,9.82,0,0,0,.3,3.4,173.208,173.208,0,0,1,3.2,20.4c.3,3.4.5,6.9.5,10.3a13.034,13.034,0,0,0,2.9,7.3c1.8,2.2,2.8,5.5,3.8,8.1,1.2,3.2,2.3,6.4,3.2,9.7a99.828,99.828,0,0,1,2.6,15.3,65.569,65.569,0,0,0,6,21.7c-.8.2-3,.5-3.4,1.4-.8,1.5,1.3.7,1.8.5a8.353,8.353,0,0,1,8.6,1c3.2,2.6,5.5,6.3,8.2,9.4a27.79,27.79,0,0,0,4.2,4.2c.5.4,3.5,2.3,1.2,2.7h0c-.7.1-.2,0,0,0a8.647,8.647,0,0,1-3.9-.6c-2-.7-3.3-2.2-4.8-3.7-.7-.6-3.1-2.2-3.4-.3a4.282,4.282,0,0,0,.6,2.2,92.611,92.611,0,0,0,6.3,12.1c.6,1,1.5,2.1,1.5,3.2.2,2.7-2.5,0-3-.7-2.2-2.8-3.7-6.3-6.3-8.7-1.1-1-2.5-.9-2.4.8a12.13,12.13,0,0,0,.7,3.3q.9,3,2.1,6a30.865,30.865,0,0,1,1.4,4.3c.2,1.2-.3,3.4-1.7,1.8a15.673,15.673,0,0,1-2.2-4.5c-.8-2-1.5-4-2.2-6.1-.3-.9-1-4-2.3-4.1-1.6-.1-1.2,3.3-1.2,4.1.1,2,.3,4,.5,6,.1,1,.5,3.9-.5,4.6-1.5,1.1-1.7-3.6-1.8-4.2-.1-1.2-.2-2.5-.3-3.7-.1-1-.5-8.7-3.2-6.8-1.3.9-.8,3.7-.7,5a22.624,22.624,0,0,1,.2,4.5c0,1-.6,3.4-1.5,1.4-.8-1.7-.6-3.7-.8-5.5-.1-2.2-.4-4.4-.6-6.7a9.863,9.863,0,0,0-.3-2.4c-.9-2.7-2-5.3-2.7-8.2-.5-2.3-1.2-5.5,1.2-6.8.4-.2,1-.5.6-1.1-.5-.7-1.8.1-2.2.5-5.1-15-13.8-28.4-18.7-43.4a95.41,95.41,0,0,1-2.9-12,101.072,101.072,0,0,0-3.5-11.9c-1.2-3.2-2.5-6.2-3.8-9.3a3.75,3.75,0,0,1,0-2.1,5.019,5.019,0,0,1,.2-1.2l-1.7,1.1c-.2,1-.3,2-.5,3.1v-.1L308.1,182c-.1.3-.2.7-.3,1a9.079,9.079,0,0,0-.3,2.3c0,3.1.1,6.1.1,9.2,0,4,.2,8,.2,12v1.8c0,1.2-.4,2.2-.5,3.4a15.277,15.277,0,0,0,.7,3.6c.3,1.6.7,3.3,1,4.9a126.254,126.254,0,0,1,2.7,19.3c.3,6.5,0,13-.3,19.5-.2,6.5-.5,12.9-1.1,19.4a230,230,0,0,1-6.5,38.7c-1.6,6.1-3.6,12.2-4.1,18.6a41.872,41.872,0,0,0,.4,10.6c.9,6.4,3.1,12.5,3.8,18.9a60,60,0,0,1-1,18.9c-1.7,8.7-4.5,17.2-7,25.7-1.9,6.4-3.8,12.7-5.6,19.1-.7,2.6-1.5,5.3-2,8a13.98,13.98,0,0,0-.5,5,23.487,23.487,0,0,0,2.3,5.7,43.513,43.513,0,0,0,4.6,7.4,17.27,17.27,0,0,0,2.6,2.8c.7.6,1.5,1,2.2,1.6,1.8,1.5-1.5,2.1-2.5,2.3-3.1.6-6,1.7-9.2,1.5a4.672,4.672,0,0,1-1.7-.3c-.8-.3-.8-.5-.9-1.2a4.013,4.013,0,0,0-.3-1.5,4.2,4.2,0,0,0-.9-1.4c-1.2-.7-.3,1.7-.2,2,.3.9.7,2.4.1,3.2-.6.9-2.1,1.2-3.1,1.3a4.507,4.507,0,0,1-3.9-.8c-2.5-2.2-1.9-6.6-1.9-9.7V441.4c.1-10.8,2-21.4,2.4-32.2.2-6.5-.5-12.8-.7-19.2-.2-4.5,0-9,.2-13.5.2-5.7.3-11.3.8-17a62.024,62.024,0,0,0,.7-9.6,16.553,16.553,0,0,0-.3-3.2c-.4-1.4-1.1-2.6-1.4-4a25.293,25.293,0,0,1,0-9.5,37.023,37.023,0,0,0-.3-9.4c-.7-6.2-1.2-12.3-1.4-18.5-.2-8.7,0-17.5-.1-26.2,0-3.2-.1-6.4-.1-9.6l-.1-4.2a8.854,8.854,0,0,1,0-2.3c.2-.4.8-.2,1.2-.3a8.031,8.031,0,0,0,3.8-1.4,6.192,6.192,0,0,0,2.5-6.3,7.049,7.049,0,0,1-2.5,4.4,9,9,0,0,1-5.3,1.4,8.7,8.7,0,0,1-5.4-1.5,7.541,7.541,0,0,1-2.5-4.4,6.246,6.246,0,0,0,1.3,5.3,7.735,7.735,0,0,0,2.8,1.9,10.926,10.926,0,0,0,1.7.5,4.868,4.868,0,0,1,1.2.1,4.819,4.819,0,0,1,0,1.2v2.8l-.2,14.7c-.1,7.8.1,15.7-.1,23.5-.1,5.1-.4,10.1-.9,15.2-.3,2.6-.6,5.2-.8,7.8a48.322,48.322,0,0,0,.3,7.6,28.282,28.282,0,0,1-.5,7.7c-.5,1.9-1.3,3.5-1.4,5.6-.4,5.3.9,10.7,1.2,16,.2,4.1.2,8.2.4,12.3.2,3.6.3,7.3.2,10.9-.1,5.3-.8,10.5-.8,15.8a146.587,146.587,0,0,0,.9,16.2c.5,5.3,1.3,10.6,1.6,16,.1,2.3.1,4.6,0,6.8v11.5c0,1.6.1,3.3,0,4.9-.1,2-.6,4.5-2.5,5.5a6.332,6.332,0,0,1-6.1-.6,2.346,2.346,0,0,1-.5-2.4c.1-.5.6-2.7,1.2-2.6a.9.9,0,0,0-1.2-.6,2.187,2.187,0,0,0-.5.3c-.7.9-.3,2.7-1,3.6-.6.7-2.3.7-3.2.6a20.074,20.074,0,0,1-4.2-.5c-1.3-.2-2.5-.6-3.8-.9a11.267,11.267,0,0,0-1.8-.3c-.5-.1-1.7-.6-1.8-1.2-.1-.7,1.1-1.2,1.6-1.5,3.8-2.5,6.3-6.9,8.4-10.9a23.781,23.781,0,0,0,2.4-5.7,10.273,10.273,0,0,0-.2-3.9c-1.3-6.9-3.5-13.6-5.5-20.2-1.3-4.3-2.5-8.7-3.8-13-3-10.3-6.6-20.9-7-31.8a61.138,61.138,0,0,1,2-16.5,74.963,74.963,0,0,0,2.6-15.5c.3-8.8-2.4-17.1-4.6-25.5a210.266,210.266,0,0,1-5.8-33.4c-1-11.2-1.5-22.4-1.7-33.6a117.974,117.974,0,0,1,.6-16.8c.7-5.7,1.6-11.4,2.6-17a9.291,9.291,0,0,0,.5-2.9,11.185,11.185,0,0,0-1.2-3.5c.1.1.1.3.2.4V184.6a3.529,3.529,0,0,0-.3-1.4,24.181,24.181,0,0,1-1-3.6c-.6-2.1-1.2-4.1-1.8-6.2-.5-1.7-1.1-3.5-1.5-5.2-.2-1.2-.4-2.5-.5-3.7m29,183.4Zm0,0h0a8.515,8.515,0,0,1-10.1-2.4,9.93,9.93,0,0,1-1.5-9.8c-2.8,4.1-1.2,9.9,2.7,12.6a8.511,8.511,0,0,0,11.8-2.3c.1-.2.3-.4.4-.6a10.3,10.3,0,0,1-3.3,2.5C263.3,347.7,263.7,347.5,263,347.9Zm18-2.5a8.423,8.423,0,0,0,11.5,3.3c.2-.1.4-.3.6-.4,3.9-2.6,5.5-8.5,2.7-12.6,1.5,4.3.1,9.4-3.8,11.7a8.617,8.617,0,0,1-11-2Z" fill="#0091c7"/>
    </g>
  </g>
</svg>
