<svg xmlns="http://www.w3.org/2000/svg" width="200.312" height="438.106" viewBox="0 0 200.312 438.106"><defs><style>.a{fill:#fff;}.b{fill:#e634a7;}</style></defs><g transform="translate(-473.555 -49.127)"><path class="a" d="M665.341,265.5a8.347,8.347,0,0,0,4.937,1.842,3.719,3.719,0,0,0,3.175-.951c1.03-1.287-.032-2.781-1.261-3.416h0c-4.646-2.4-7.31-7.037-11.085-10.471-2.01-1.829-4.311-3.653-7-4.321-.829-.207-1.887.021-2.648-.213-.953-.293-1.738-2.771-2.092-3.66-2.439-6.136-3.628-12.893-5.172-19.3-1.875-7.777-3.808-16.361-8.683-22.882-1.452-1.942-3.088-3.615-4.135-5.845a20.893,20.893,0,0,1-1.573-5.827c-.847-5.52-2.072-10.988-3.226-16.449-1.1-5.208-2.377-10.407-3.262-15.658-.518-3.071-.776-6.278-1.044-9.381-.172-1.992,0-3.982-.253-5.979a23.415,23.415,0,0,0-2.486-8.05c-2.811-5.291-7.594-9.1-12.91-11.694a49.527,49.527,0,0,0-8.3-3.105c-2.773-.782-5.919-.97-8.558-2.117a7.736,7.736,0,0,1-4.5-5.572,36.889,36.889,0,0,1-.044-4c-.007-.624-.078-1.284-.021-1.9.072-.79.36-.887.978-1.511a26.289,26.289,0,0,0,4.583-6.424,45.455,45.455,0,0,0,4.671-16.971c.553-6.177.55-12.535-1.468-18.47a20.231,20.231,0,0,0-8.062-10.753c-4.992-3.212-11.44-3.882-17.2-2.81a19.343,19.343,0,0,0-11.566,6.694c-3.812,4.8-5.263,11.083-5.459,17.111a60.381,60.381,0,0,0,1.958,17.434,38.758,38.758,0,0,0,3.316,8.351,27.754,27.754,0,0,0,1.961,3.157c.761,1.05,1.777,1.794,2.573,2.773.623.768.344,2.011.343,2.95,0,1.373.093,2.788-.008,4.158a7.279,7.279,0,0,1-3.163,5.153c-2.4,1.639-5.8,1.725-8.551,2.447-11.216,2.943-22.339,9.558-24.579,21.818a57.7,57.7,0,0,0-.409,6.96c-.089,1.434-.294,2.869-.441,4.3a85.931,85.931,0,0,1-1.315,9.046c-1.264,5.979-2.545,11.954-3.776,17.94-.627,3.044-1.254,6.091-1.77,9.156a31.549,31.549,0,0,1-1.331,6.148c-1.358,3.559-4.218,6.044-6.148,9.247-4.4,7.3-6.089,16.1-8.094,24.309-.6,2.455-1.189,4.915-1.8,7.368a63.858,63.858,0,0,1-2.093,7.078,23.418,23.418,0,0,1-1.621,3.643c-.394.67-.5.973-1.171,1.1-.53.1-1.122.02-1.668.116-5.023.884-8.89,5.556-12.044,9.211a24.483,24.483,0,0,1-5.427,5.028c-1,.625-2.371,1.087-2.773,2.324a1.884,1.884,0,0,0,.692,2.121c1.612,1.226,4.477.556,6.13-.2a7.938,7.938,0,0,0,2.538-1.976c.341-.373,1.076-1.633,1.731-1.434a8.015,8.015,0,0,1-1.012,2.634c-.707,1.458-1.494,2.877-2.3,4.285-1.725,3.028-3.883,5.88-5.472,8.97-.559,1.086-1.248,3.061.248,3.767,1.4.662,2.75-1.153,3.486-2.089q2.775-3.527,5.273-7.266c-1.342,2.865-2.911,5.611-4.192,8.5-.64,1.443-1.6,3.35-1.29,4.981a1.741,1.741,0,0,0,2.731,1.193c2.306-1.4,3.313-5.174,4.346-7.5,1.005-2.261,1.934-5.1,3.614-6.985-.2,2.172-1.316,4.416-2.117,6.4-.605,1.5-1.25,3-1.756,4.542-.362,1.1-.931,2.74-.315,3.857.685,1.241,2.243.945,3.12.129a9.606,9.606,0,0,0,1.981-3.37c1.225-2.9,2.283-5.877,3.67-8.709a34.533,34.533,0,0,0-1.352,6.946c-.029,1.5.892,3.44,2.688,2.178,1.085-.762,1.571-2.368,1.981-3.55.793-2.289,1.387-4.649,2.049-6.979a39.243,39.243,0,0,1,2.969-6.429,38.4,38.4,0,0,0,3.444-9.272,8.44,8.44,0,0,0,.052-3.977c-.108-.362-.255-.56-.169-.9a4.849,4.849,0,0,1,.679-1.033l1.72-2.62q3.947-6.009,7.741-12.113c2.906-4.67,5.739-9.389,8.378-14.215a51.367,51.367,0,0,0,5.763-14.359,28.075,28.075,0,0,1,2.584-8.071c1.424-2.6,2.9-5.07,4.075-7.8a158.453,158.453,0,0,0,5.453-15.129c.822,4.114,1.934,8.132,3.019,12.177a30.1,30.1,0,0,1,.305,13.277c-1.1,6.037-3.444,11.636-5.938,17.2a107.16,107.16,0,0,0-6.042,17.17,94.5,94.5,0,0,0-1.735,37.164c1.771,12.4,5.367,24.479,8.677,36.537,3.249,11.837,6.519,23.952,6.6,36.312.032,4.925-.166,9.859-.62,14.764-.577,6.242-1.782,12.413-2.125,18.68a75.261,75.261,0,0,0,1.8,18.948c1.244,6.216,2.684,12.389,4.156,18.554,1.5,6.293,3.046,12.577,4.476,18.886a162.045,162.045,0,0,1,3.48,18.646,13,13,0,0,1,.1,4.455q-.568,2.2-1.3,4.358a40.328,40.328,0,0,1-3.612,8.058,18.226,18.226,0,0,1-4.419,4.863,2.675,2.675,0,0,0,.017,4.139,5.031,5.031,0,0,0,1.994.99c.865.218,1.792-.144,2.612.027a9.012,9.012,0,0,1,1.418.756,14.058,14.058,0,0,0,1.708.623,14.329,14.329,0,0,0,4.7.562,11.574,11.574,0,0,0,2.017-.223c.771-.174.733-.078,1.4.333a7.361,7.361,0,0,0,4.025.81,7.514,7.514,0,0,0,2.076-.239c1.013-.337,1.211-1.362,1.4-2.307a53.888,53.888,0,0,0,.7-8.743,50.8,50.8,0,0,0,.742,8.945c.183.843.4,1.773,1.291,2.091a7.8,7.8,0,0,0,2.395.255,7.109,7.109,0,0,0,3.777-.811c.669-.412.624-.5,1.4-.333a12.508,12.508,0,0,0,2.243.231,14.35,14.35,0,0,0,4.256-.51c1.164-.324,2.451-1.29,3.57-1.415,1.766-.2,2.882.245,4.381-1.042a2.657,2.657,0,0,0-.187-4.275c-4.227-2.827-6.359-8.4-7.909-13.025-.428-1.277-.809-2.571-1.152-3.875a17.606,17.606,0,0,1,.065-4.966s.9-6.241,1.515-9.332c1.244-6.24,2.7-12.436,4.178-18.623,2.948-12.318,6.54-24.766,7.938-37.383a77,77,0,0,0-.753-19.019A168.513,168.513,0,0,1,599.774,354c-.266-10.955,1.424-21.547,4.113-32.154,6.147-24.248,15.191-48.621,11.214-74.016a99.205,99.205,0,0,0-4.577-17.811c-2.021-5.688-4.846-11.037-6.87-16.719-2.044-5.74-3.526-12-2.834-18.123a45.984,45.984,0,0,1,1.646-6.945q1.232-4.5,2.137-9.076c1.4,4.461,2.9,8.887,4.659,13.22a55.011,55.011,0,0,0,3.446,7.329,28.222,28.222,0,0,1,3.147,6.66c.689,2.42,1.025,4.92,1.733,7.336a42.438,42.438,0,0,0,2.978,7.215c2.485,4.9,5.292,9.648,8.149,14.339q3.972,6.527,8.14,12.934,1.724,2.643,3.464,5.278a5.13,5.13,0,0,1,.609.926c.15.434.081.438-.07.9a5.87,5.87,0,0,0-.233,1.922c.1,5.677,3.595,10.8,5.977,15.733.989,2.047,1.36,4.563,2,6.749.515,1.752.982,3.887,2.158,5.343,1.215,1.5,3.048.939,3.233-.955.245-2.5-.783-5.2-1.337-7.611,1.372,2.8,2.426,5.741,3.63,8.614a9.9,9.9,0,0,0,2.02,3.467c.881.828,2.426,1.1,3.121-.129.624-1.106.044-2.76-.314-3.855-.48-1.461-1.085-2.884-1.662-4.308-.833-2.058-2.008-4.386-2.21-6.637,1.731,1.942,2.669,4.866,3.709,7.2,1.005,2.256,2.031,6.083,4.366,7.348a1.745,1.745,0,0,0,2.643-1.413c.207-1.611-.686-3.406-1.316-4.829-1.282-2.893-2.85-5.636-4.191-8.5,1.627,2.44,3.36,4.809,5.161,7.122.721.926,2.041,2.792,3.454,2.3,1.668-.577.959-2.732.395-3.833-1.549-3.025-3.667-5.816-5.36-8.773-.842-1.473-1.669-2.959-2.41-4.485a8.013,8.013,0,0,1-1.013-2.636C663.473,262.882,664.788,265.023,665.341,265.5Zm-90.654-4.016c-.378,7.239-.555,14.484-.714,21.731.03-.962.058-.944.058,2.935v.043c0,.859-.165,1.72-.177,2.58-.135-9.1-.537-18.19-1.013-27.275A7.03,7.03,0,0,0,574.687,261.483Zm1.447,188.959c-.029,1.184-.079,2.368-.118,3.551a7.154,7.154,0,0,1-.308,2.816c-.53,1.164-1.314,2.262-1.958,3.368-.456-.121-1.274-2.057-1.586-2.592a7.324,7.324,0,0,1-.686-1.182c-.388-1.157-.095-3.012-.137-4.248-.086-2.488-.139-4.977-.181-7.467-.1-5.656.048-11.325.389-16.971.363-6.018,1.24-11.976,1.68-17.984a249.343,249.343,0,0,0-.461-36.62q-.343-4.62-.8-9.231a17.42,17.42,0,0,1-.179-4.266c.212-1.43.415-2.859.59-4.294a163.273,163.273,0,0,0,1.181-17.842c.08-6.761-.669-13.5-.544-20.251.1-5.434.607-10.859.7-16.3.085,5.187.553,10.353.677,15.531.129,5.389-.4,10.745-.5,16.13a161.066,161.066,0,0,0,.66,18.087q.394,4.231,1.016,8.436c.434,2.966-.247,6.129-.508,9.114-.6,6.808-1.227,20.8-1.227,20.8s-.126,10.44.087,15.807c.233,5.852,1.061,11.631,1.567,17.457.525,6.055.772,12.134.8,18.212C576.293,443.817,576.217,447.13,576.134,450.442Z"/><path class="b" d="M647.062,252.674a13.621,13.621,0,0,0,3.459,7.005c1.633,1.707,4.24,3.355,6.72,2.838a10.257,10.257,0,0,1-3.034-1.446C650.991,259.165,649.193,255.583,647.062,252.674Zm-156.881,9.843c5.344,1.069,9.4-5.449,10.179-9.843-.461.633-.861,1.3-1.313,1.943C496.774,257.86,494.217,261.413,490.181,262.517Zm175.16,2.982a8.347,8.347,0,0,0,4.937,1.842,3.719,3.719,0,0,0,3.175-.951c1.03-1.287-.032-2.781-1.261-3.416h0c-4.646-2.4-7.31-7.037-11.084-10.471-2.011-1.829-4.312-3.653-7-4.321-.83-.207-1.888.021-2.649-.213-.953-.293-1.738-2.771-2.092-3.66-2.439-6.136-3.628-12.893-5.172-19.3-1.875-7.777-3.808-16.361-8.683-22.882-1.452-1.942-3.088-3.615-4.135-5.845a20.893,20.893,0,0,1-1.573-5.827c-.847-5.52-2.072-10.988-3.226-16.449-1.1-5.208-2.377-10.407-3.262-15.658-.518-3.071-.776-6.278-1.044-9.381-.172-1.992,0-3.982-.253-5.979a23.415,23.415,0,0,0-2.486-8.05c-2.81-5.291-7.594-9.1-12.91-11.694a49.527,49.527,0,0,0-8.3-3.105c-2.772-.782-5.919-.97-8.557-2.117a7.735,7.735,0,0,1-4.5-5.572,36.889,36.889,0,0,1-.044-4c-.007-.624-.078-1.284-.021-1.9.072-.79.36-.887.978-1.511a26.289,26.289,0,0,0,4.583-6.424,45.455,45.455,0,0,0,4.671-16.971c.553-6.177.55-12.535-1.468-18.47a20.231,20.231,0,0,0-8.062-10.753c-4.992-3.212-11.44-3.882-17.2-2.81a19.343,19.343,0,0,0-11.566,6.694c-3.811,4.8-5.263,11.083-5.459,17.111a60.381,60.381,0,0,0,1.958,17.434,38.758,38.758,0,0,0,3.316,8.351,27.754,27.754,0,0,0,1.961,3.157c.762,1.05,1.777,1.794,2.573,2.773.623.768.344,2.011.343,2.95,0,1.373.093,2.788-.008,4.158a7.279,7.279,0,0,1-3.163,5.153c-2.4,1.639-5.8,1.725-8.551,2.447-11.216,2.943-22.338,9.558-24.579,21.818a57.7,57.7,0,0,0-.409,6.96c-.089,1.434-.294,2.869-.441,4.3a85.931,85.931,0,0,1-1.315,9.046c-1.264,5.979-2.545,11.954-3.776,17.94-.627,3.044-1.254,6.091-1.77,9.156a31.549,31.549,0,0,1-1.331,6.148c-1.358,3.559-4.218,6.044-6.148,9.247-4.4,7.3-6.089,16.1-8.094,24.309-.6,2.455-1.189,4.915-1.8,7.368a63.858,63.858,0,0,1-2.093,7.078,23.418,23.418,0,0,1-1.621,3.643c-.394.67-.5.973-1.171,1.1-.53.1-1.122.02-1.667.116-5.024.884-8.891,5.556-12.045,9.211a24.483,24.483,0,0,1-5.427,5.028c-1,.625-2.371,1.087-2.773,2.324a1.884,1.884,0,0,0,.692,2.121c1.612,1.226,4.477.556,6.13-.2a7.938,7.938,0,0,0,2.538-1.976c.341-.373,1.077-1.633,1.731-1.434a8.015,8.015,0,0,1-1.012,2.634c-.707,1.458-1.494,2.877-2.3,4.285-1.725,3.028-3.882,5.88-5.472,8.97-.559,1.086-1.248,3.061.248,3.767,1.4.662,2.75-1.153,3.486-2.089q2.775-3.527,5.273-7.266c-1.342,2.865-2.911,5.611-4.192,8.5-.64,1.443-1.6,3.35-1.29,4.981a1.741,1.741,0,0,0,2.731,1.193c2.306-1.4,3.313-5.174,4.346-7.5,1.005-2.261,1.934-5.1,3.614-6.985-.2,2.172-1.316,4.416-2.117,6.4-.605,1.5-1.25,3-1.756,4.542-.362,1.1-.931,2.74-.315,3.857.685,1.241,2.243.945,3.12.129a9.606,9.606,0,0,0,1.981-3.37c1.225-2.9,2.283-5.877,3.67-8.709a34.533,34.533,0,0,0-1.352,6.946c-.029,1.5.892,3.44,2.688,2.178,1.085-.762,1.571-2.368,1.981-3.55.793-2.289,1.387-4.649,2.049-6.979a39.243,39.243,0,0,1,2.969-6.429,38.4,38.4,0,0,0,3.444-9.272,8.426,8.426,0,0,0,.053-3.977c-.109-.362-.256-.56-.17-.9a4.849,4.849,0,0,1,.679-1.033l1.72-2.62q3.947-6.009,7.742-12.113c2.9-4.67,5.738-9.389,8.377-14.215a51.335,51.335,0,0,0,5.763-14.359,28.075,28.075,0,0,1,2.584-8.071c1.424-2.6,2.9-5.07,4.075-7.8a158.453,158.453,0,0,0,5.453-15.129c.822,4.114,1.934,8.132,3.019,12.177a30.1,30.1,0,0,1,.305,13.277c-1.1,6.037-3.444,11.636-5.938,17.2a107.16,107.16,0,0,0-6.042,17.17,94.5,94.5,0,0,0-1.735,37.164c1.771,12.4,5.367,24.479,8.677,36.537,3.249,11.837,6.519,23.952,6.6,36.312.032,4.925-.166,9.859-.62,14.764-.577,6.242-1.782,12.413-2.125,18.68a75.261,75.261,0,0,0,1.8,18.948c1.244,6.216,2.684,12.389,4.156,18.554,1.5,6.293,3.046,12.577,4.476,18.886a162.271,162.271,0,0,1,3.481,18.646,13.023,13.023,0,0,1,.1,4.455q-.568,2.2-1.3,4.358a40.328,40.328,0,0,1-3.612,8.058,18.226,18.226,0,0,1-4.419,4.863,2.675,2.675,0,0,0,.017,4.139,5.038,5.038,0,0,0,1.994.99c.865.218,1.792-.144,2.612.027a9.012,9.012,0,0,1,1.418.756,14.058,14.058,0,0,0,1.708.623,14.329,14.329,0,0,0,4.7.562,11.574,11.574,0,0,0,2.017-.223c.771-.174.733-.078,1.4.333a7.361,7.361,0,0,0,4.025.81,7.514,7.514,0,0,0,2.076-.239c1.013-.337,1.211-1.362,1.4-2.307a53.888,53.888,0,0,0,.7-8.743,50.8,50.8,0,0,0,.742,8.945c.183.843.4,1.773,1.291,2.091a7.8,7.8,0,0,0,2.395.255,7.109,7.109,0,0,0,3.777-.811c.669-.412.624-.5,1.4-.333a12.508,12.508,0,0,0,2.243.231,14.35,14.35,0,0,0,4.256-.51c1.164-.324,2.451-1.29,3.57-1.415,1.766-.2,2.882.245,4.381-1.042a2.657,2.657,0,0,0-.187-4.275c-4.227-2.827-6.359-8.4-7.909-13.025-.428-1.277-.809-2.571-1.152-3.875a13.793,13.793,0,0,1,.065-4.966c.344-3.134.9-6.241,1.515-9.332,1.244-6.24,2.7-12.436,4.178-18.623,2.948-12.318,6.54-24.766,7.937-37.383a77,77,0,0,0-.751-19.019A168.269,168.269,0,0,1,599.774,354c-.266-10.955,1.424-21.547,4.113-32.154,6.147-24.248,15.191-48.621,11.214-74.016a99.205,99.205,0,0,0-4.577-17.811c-2.021-5.688-4.845-11.037-6.87-16.719-2.044-5.74-3.526-12-2.834-18.123a45.984,45.984,0,0,1,1.646-6.945q1.232-4.5,2.137-9.076c1.4,4.461,2.9,8.887,4.659,13.22a55.011,55.011,0,0,0,3.446,7.329,28.222,28.222,0,0,1,3.147,6.66c.689,2.42,1.025,4.92,1.733,7.336a42.438,42.438,0,0,0,2.978,7.215c2.485,4.9,5.292,9.648,8.149,14.339q3.972,6.527,8.14,12.934,1.724,2.643,3.464,5.278a5.022,5.022,0,0,1,.609.926c.15.434.081.438-.07.9a5.87,5.87,0,0,0-.233,1.922c.1,5.677,3.595,10.8,5.977,15.733.989,2.047,1.36,4.563,2,6.749.515,1.752.981,3.887,2.158,5.343,1.215,1.5,3.048.939,3.233-.955.245-2.5-.783-5.2-1.337-7.611,1.372,2.8,2.426,5.741,3.63,8.614a9.9,9.9,0,0,0,2.02,3.467c.881.828,2.426,1.1,3.121-.129.624-1.106.044-2.76-.314-3.855-.48-1.461-1.085-2.884-1.662-4.308-.833-2.058-2.008-4.386-2.21-6.637,1.731,1.942,2.669,4.866,3.709,7.2,1.005,2.256,2.031,6.083,4.366,7.348a1.745,1.745,0,0,0,2.643-1.413c.207-1.611-.686-3.406-1.316-4.829-1.282-2.893-2.85-5.636-4.191-8.5,1.627,2.44,3.36,4.809,5.162,7.122.72.926,2.04,2.792,3.453,2.3,1.668-.577.959-2.732.395-3.833-1.549-3.025-3.667-5.816-5.359-8.773-.843-1.473-1.67-2.959-2.411-4.485a8.013,8.013,0,0,1-1.013-2.636C663.474,262.882,664.788,265.023,665.341,265.5ZM561.2,103.188c-3.48-4-5.355-9.093-6.575-14.18a50.18,50.18,0,0,1-1.147-16.761c.591-5.231,1.666-10.309,5.045-14.52a18.183,18.183,0,0,1,13.931-6.465c5.5-.15,11.041.976,15.093,4.964,3.661,3.6,5.554,8.746,6.141,13.77,1.222,10.45.118,22.753-6.191,31.546a22.985,22.985,0,0,1-6.054,5.818c-1.849,1.21-4.71,2.9-7.04,2.689a18.262,18.262,0,0,1-6.408-1.473A21.535,21.535,0,0,1,561.2,103.188Zm12.55,356.99c-.456-.121-1.274-2.057-1.585-2.592a7.254,7.254,0,0,1-.687-1.182c-.387-1.157-.094-3.012-.137-4.248-.086-2.488-.139-4.977-.181-7.467-.1-5.656.048-11.325.389-16.971.363-6.018,1.24-11.976,1.68-17.984a249.478,249.478,0,0,0-.46-36.62q-.345-4.62-.8-9.231a17.42,17.42,0,0,1-.179-4.266c.212-1.43.415-2.859.59-4.294a163.273,163.273,0,0,0,1.181-17.842c.08-6.761-.669-13.5-.544-20.251.1-5.434.607-10.859.7-16.3.085,5.187.553,10.353.677,15.531.129,5.389-.4,10.745-.5,16.13a161.066,161.066,0,0,0,.66,18.087q.394,4.231,1.016,8.436c.434,2.966-.247,6.129-.508,9.114a288.918,288.918,0,0,0-1.139,36.608c.233,5.852,1.061,11.631,1.567,17.457.525,6.055.772,12.134.8,18.212.015,3.314-.06,6.626-.144,9.939-.03,1.184-.079,2.368-.118,3.551a7.154,7.154,0,0,1-.308,2.816C575.178,457.973,574.394,459.071,573.75,460.178Zm.281-174.029v.043c0,.859-.165,1.72-.177,2.58-.135-9.1-.537-18.19-1.013-27.275a7.038,7.038,0,0,0,1.847-.014c-.429,8.191-.6,16.389-.779,24.59C573.931,285.068,574.031,278.918,574.031,286.149Zm88.163-20.375a72.384,72.384,0,0,0,4.392,8.044q1.058,1.75,2.155,3.478c.607.956,2.2,2.636,1.993,3.8-.2,1.1-1.406-.625-1.75-1.042-1.312-1.595-2.531-3.283-3.724-4.968-.678-.956-3.453-6.307-4.84-4.125-.736,1.158,1.222,3.99,1.692,4.923,1.51,3,3.452,6.08,4.3,9.371.193.744.388,2.387-.745,1.494-1.117-.881-1.78-2.777-2.353-4.014-1.451-3.139-2.582-6.631-4.621-9.449-.493-.68-1.4-1.784-2.344-1.111a1.688,1.688,0,0,0-.466,1.595c.251,3.329,2.2,6.669,3.367,9.734.37.97,1.341,2.806,1.06,3.906-.212.831-.894.367-1.346-.174a16.721,16.721,0,0,1-2.145-4.541c-.732-1.837-1.472-3.673-2.289-5.475-.438-.967-1.2-3.4-2.392-3.788-2.249-.736-.611,4.261-.459,4.892a36.526,36.526,0,0,1,.919,4.588c.12,1.111-.117,2.367-1.025.882-2.087-3.413-1.949-7.837-3.682-11.373-1.312-2.673-2.809-5.213-3.943-7.98-.988-2.407-2.506-5.761-1.851-8.434.215-.877.723-.96,1.2-1.588.249-.324.4-.777-.021-1.078-.463-.33-1.043.1-1.4.39-3.294-5.52-6.617-11.023-9.87-16.567-4.189-7.142-8.977-14.373-11.846-22.176-1.347-3.667-1.691-7.6-3.106-11.244s-3.871-6.84-5.491-10.411c-1.6-3.53-3.023-7.146-4.4-10.767q-.667-1.745-1.308-3.5a11.8,11.8,0,0,1-.794-2.225,12.613,12.613,0,0,1,.475-3.065,9.991,9.991,0,0,1,.629-2.91,20.618,20.618,0,0,0,2.364-6.486,16.314,16.314,0,0,0-.373-6.316c-.282-1.064-.947-2.127-.891-3.179a30.234,30.234,0,0,1,.681-3.406c-.429,1.028-.824,2.068-1.215,3.11-.339.9-.226.97.005,1.923a17.631,17.631,0,0,1,.37,6.258,15.737,15.737,0,0,1-5.253,10.018,13.8,13.8,0,0,1-9.532,3.331,15.293,15.293,0,0,1-11.612-6.769c4.086,9.753,16.915,11.205,23.757,3.733a125.527,125.527,0,0,1-3.5,15.552,35.884,35.884,0,0,0-1.712,8.271,44.416,44.416,0,0,0,2.8,16.686c1.859,5.379,4.509,10.438,6.459,15.785a90.677,90.677,0,0,1,5.819,33.486c-.342,11.9-2.918,23.526-5.974,34.982-3.012,11.3-6.631,22.486-8.842,33.982a113.95,113.95,0,0,0-.887,34.423c.669,5.923,1.788,11.782,2.018,17.751a75.864,75.864,0,0,1-1.891,17.684c-2.328,11.706-5.3,23.271-7.936,34.91-1.264,5.59-2.495,11.2-3.378,16.86-.386,2.476-1.043,5.457-.729,7.96a32.881,32.881,0,0,0,2.481,7.664,35.722,35.722,0,0,0,3.6,6.982,16.954,16.954,0,0,0,2.43,2.873c.532.489,1.434.906,1.9,1.434,1.141,1.285-.633,2.491-1.685,2.753-.788.2-1.588-.124-2.352,0a11.8,11.8,0,0,0-2.233,1.059,14,14,0,0,1-7.6.755,4.78,4.78,0,0,0-.418-4.133c-.384-.511-1.008-.551-1.088.194-.039.377.312.856.413,1.2a2.605,2.605,0,0,1-2.266,3.659c-.821.151-3.2.462-3.859-.224-.4-.421-.407-1.709-.474-2.249-.147-1.189-.221-2.386-.279-3.582-.116-2.337-.148-4.681-.16-7.021-.012-2.356.01-4.711.047-7.066.025-1.569-.345-3.821.3-5.242a31.056,31.056,0,0,1,1.615-2.745,3.825,3.825,0,0,0,.547-2.333c.082-2.634.2-5.265.27-7.9.213-7.727.1-15.449-.433-23.161-.315-4.582-.934-9.132-1.3-13.709-.382-4.749-.477-9.524-.449-14.287.055-9.531.609-19.072,1.386-28.569.189-2.313.691-4.768.653-7.084a45.83,45.83,0,0,0-.72-5.07q-.911-6.9-1.2-13.855c-.372-8.625.578-17.211.268-25.821-.15-4.169-.577-8.326-.7-12.5-.135-4.674-.151-9.35-.15-14.024q0-7.154.141-14.307.068-3.511.166-7.019.048-1.755.106-3.509c.02-.6-.239-2.97.1-3.333.383-.414,1.567-.636,2.094-1.014a5.943,5.943,0,0,0,1.451-1.421,37.421,37.421,0,0,1-5.748.694,39.46,39.46,0,0,1-5.722-.795,6.15,6.15,0,0,0,1.238,1.278c.682.542,1.667.726,2.3,1.232.516.412.313,1.779.339,2.549q.064,1.889.118,3.778.206,7.153.283,14.309c.1,9.429.151,18.889-.4,28.3-.2,3.406-.5,6.76-.478,10.176.03,4.726.474,9.44.487,14.171s-.2,9.48-.6,14.2q-.284,3.332-.718,6.653c-.226,1.743-.691,3.54-.759,5.291a59.078,59.078,0,0,0,.635,6.845q.292,3.532.522,7.068c.315,4.8.584,9.612.74,14.423a200.963,200.963,0,0,1-.963,28.109,214.56,214.56,0,0,0-1.152,27.625c.042,1.893.1,3.786.156,5.679.047,1.583.13,3.165.181,4.747a4.4,4.4,0,0,0,.555,2.58,28.411,28.411,0,0,1,1.615,2.745c.607,1.369.271,3.46.3,4.97.078,4.784.127,9.58-.109,14.359-.054,1.111-.124,2.224-.25,3.329-.068.6-.05,1.922-.463,2.412-.65.772-3,.478-3.9.313a2.605,2.605,0,0,1-2.265-3.659c.092-.314.394-.723.4-1.054.008-.785-.609-.956-1.074-.341a4.768,4.768,0,0,0-.418,4.133,13.929,13.929,0,0,1-7.79-.837,9.933,9.933,0,0,0-1.982-.983c-.784-.123-1.6.2-2.413.008-1.158-.281-2.8-1.519-1.61-2.8.422-.454,1.176-.8,1.648-1.224a17.1,17.1,0,0,0,2.74-3.226,36.455,36.455,0,0,0,3.471-6.79,32.552,32.552,0,0,0,2.481-7.664c.305-2.509-.342-5.48-.729-7.96-.441-2.82-.968-5.628-1.544-8.424-2.4-11.658-5.378-23.188-7.964-34.805-1.3-5.829-2.605-11.7-3.318-17.636a69.187,69.187,0,0,1,.479-17.752c1.583-11.509,2.847-23.133,1.55-34.744-1.292-11.559-4.712-22.78-7.835-33.942C538.159,294.765,535,283.284,533.7,271.5a90.623,90.623,0,0,1,2.712-34.324,110.446,110.446,0,0,1,5.715-15.635,70.338,70.338,0,0,0,5.45-16.3,31.724,31.724,0,0,0-.317-13.883c-.89-3.312-1.9-6.577-2.672-9.924q-.955-4.148-1.632-8.353c6.843,7.473,19.67,6.02,23.757-3.733-3.672,5.126-9.99,8.113-16.2,6.178a15.064,15.064,0,0,1-9.919-11.205,17.041,17.041,0,0,1-.116-6.826,11.487,11.487,0,0,0,.486-2.186c-.039-1.116-1.049-2.789-1.484-3.831.171.978.372,1.951.577,2.922a2.325,2.325,0,0,1,.005,1.4c-.115.447-.371.9-.518,1.339a15.9,15.9,0,0,0-.781,5.754,16.537,16.537,0,0,0,1.342,5.8c.381.884,1.1,1.7,1.426,2.576a16.889,16.889,0,0,1,.436,3c.189,1.192.537,2.174.134,3.31q-.515,1.457-1.056,2.9c-1.26,3.389-2.577,6.761-3.986,10.091a106.11,106.11,0,0,1-5.459,10.563c-1.943,3.468-2.414,7.263-3.446,11.033-2.182,7.975-7.066,15.26-11.193,22.341-3.752,6.437-7.6,12.816-11.417,19.214-1.034-.859-2.245-.232-1.143.878a2.828,2.828,0,0,1,1.013,1.93,12.6,12.6,0,0,1-.839,4.936,55.893,55.893,0,0,1-4.639,10.25A28.471,28.471,0,0,0,497.871,278c-.347,1.213-.692,2.428-1.105,3.621a7.109,7.109,0,0,1-1.173,2.563c-1.31,1.343-.649-2.145-.544-2.711.368-1.99.989-3.93,1.326-5.924.123-.725.352-2.226-.825-2.169-.46.022-.767.416-1.026.753a15.583,15.583,0,0,0-1.635,3.091c-1.012,2.234-1.9,4.522-2.811,6.8-.3.754-1.518,4.314-2.69,3.852-.614-.242-.144-1.516-.03-1.947,1.063-4.032,3.68-7.788,4.161-11.968.077-.667.1-1.557-.624-1.882-1.3-.583-2.37,1.462-2.864,2.317-2.125,3.673-3.224,7.968-5.593,11.494-.555.827-1.78,1.932-1.584.1a17.265,17.265,0,0,1,1.854-4.955c.946-2.088,2.093-4.083,3.1-6.144a9.346,9.346,0,0,0,1.31-3.28,1.032,1.032,0,0,0-1.069-1.138c-1.379-.049-2.6,2.774-3.314,3.8q-1.922,2.775-4.014,5.433c-.368.469-2.532,3.087-1.914.863.4-1.434,1.563-2.766,2.352-4.022q1.375-2.191,2.689-4.42c1.519-2.589,3.61-5.584,4.186-8.586.346-1.8-1.614-2.25-2.861-1.189-.719.612-1.229,1.434-1.94,2.057a6.729,6.729,0,0,1-3.577,1.489c-1.047.151-4.051-.115-1.983-1.574,1.05-.741,2.209-1.277,3.223-2.09a24.167,24.167,0,0,0,2.674-2.554c3.271-3.569,6.395-8.017,11.077-9.841a6.328,6.328,0,0,1,4.728-.145c.641.269,1.243,1.112,1.863,1.282.961.264,1.008-.754.578-1.288a5.561,5.561,0,0,0-2.6-1.484,25.372,25.372,0,0,0,3.331-7.434c1.1-3.4,1.989-6.856,2.888-10.308,1.712-6.575,3.273-13.268,5.861-19.569a35.914,35.914,0,0,1,3.522-6.7c1.016-1.484,2.285-2.761,3.32-4.232,3.3-4.692,3.573-10.468,4.674-15.924,1.436-7.121,3.054-14.2,4.5-21.323a124.579,124.579,0,0,0,1.677-12.663c.154-1.565.071-3.075.129-4.649a23.019,23.019,0,0,1,1.779-8.226c2.418-5.634,7.239-9.7,12.617-12.4a51.108,51.108,0,0,1,10.168-3.7c3.457-.9,7.191-1.208,9.582-4.189,2.491-3.105,1.929-6.476,1.875-10.171a18.118,18.118,0,0,0,10.558,4.522c3.76.166,7.473-1.941,10.336-4.25-.047,3.171-.524,6.039,1.234,8.853,1.737,2.78,4.349,3.829,7.42,4.526a66.4,66.4,0,0,1,9.5,2.8c5.614,2.2,11.027,5.533,14.432,10.63a21.4,21.4,0,0,1,3.234,7.973,51.606,51.606,0,0,1,.387,6.827c.567,10.358,3.214,20.474,5.358,30.581.758,3.574,1.539,7.152,2.128,10.758a27.919,27.919,0,0,0,1.524,6.355c1.6,3.845,4.823,6.54,6.772,10.165,3.583,6.657,5.378,14.15,7.24,21.427,1,3.894,1.955,7.805,3.127,11.651.907,2.974,1.849,6.176,3.723,8.7-.643.2-3.21,1.209-2.8,2.323.373,1.018,1.191.113,1.646-.221,1.991-1.456,4.49-1.187,6.62-.151,3.607,1.754,6.37,4.985,8.944,7.966a33.11,33.11,0,0,0,3.69,3.808,18.05,18.05,0,0,0,2.517,1.776c.477.278,2.057.871,1.742,1.647-.43,1.064-2.842.508-3.562.336-2.163-.514-3-1.856-4.52-3.262-.911-.842-3.033-1.157-3.063.569A7.191,7.191,0,0,0,662.195,265.774Zm-97.58,97.677c-3.067,1.5-7.708,1.078-9.844-1.777-2.024-2.7-2.162-6.46-2.144-9.705-1.337,4.355-.789,10.845,3.985,12.879,3.519,1.5,10.185.464,10.751-4.129A5.534,5.534,0,0,1,564.615,363.451Zm26.2,1.4c4.783-2.038,5.308-8.518,3.985-12.879.021,3.837-.194,9.037-3.886,11.276-3.245,1.968-9.214,1.255-10.85-2.526C580.639,365.308,587.283,366.351,590.81,364.848ZM572.748,216.711c-.1-.544-.188-1.713.631-1.958-1.313-.836-2.048,1.4-1.933,2.4.3,2.613,3.9,1.8,2.826-.486C574.355,216.791,573.1,218.664,572.748,216.711Z"/></g></svg>