<svg xmlns="http://www.w3.org/2000/svg" width="151.652" height="360.613" viewBox="0 0 151.652 360.613"><defs><style>.a{fill:#fff;}.b{fill:#0091c7;}</style></defs><g transform="translate(-751.697 -172.663)"><path class="a" d="M901.065,365.839a16.49,16.49,0,0,1-1.833-3.475c-1.5-3.243-3.365-6.078-6.45-8.045a14.144,14.144,0,0,0-2.622-1.312c-.312-.118-1.219-.222-1.439-.446-.257-.263-.245-1.442-.306-1.8q-.6-3.481-1.228-6.957c-.856-4.708-1.753-9.411-2.726-14.1-.937-4.519-1.92-9.036-3.121-13.493-.572-2.122-1.638-4.34-1.9-6.505-.284-2.311-.534-4.628-.764-6.947-.935-9.413-1.654-18.842-2.792-28.234-.555-4.574-1.246-9.027-3.512-13.114a24.849,24.849,0,0,0-8.4-8.791,43.9,43.9,0,0,0-11.865-5.019c-4.015-1.134-8.392-1.394-10.915-5.144a16.212,16.212,0,0,1-2.259-5.727,24.217,24.217,0,0,1-.447-3.142c-.045-.579-.135-.873.265-1.27a15.369,15.369,0,0,1,1.423-1.04A31.821,31.821,0,0,0,848.194,222a43.884,43.884,0,0,0,5.437-22.048c-.061-5.7-.978-11.433-3.994-16.384-4.576-7.512-12.853-10.578-21.319-10.883-8.266-.3-16.992,2.492-22.007,9.374-3.551,4.871-4.919,11.011-4.989,16.957a46,46,0,0,0,4.671,21.6,32.35,32.35,0,0,0,7.424,9.548q1.108.964,2.3,1.82c.6.43.819.419.774,1.187q-.057.95-.186,1.894a19.4,19.4,0,0,1-1.766,6.046,9.622,9.622,0,0,1-3.8,4.2c-1.8,1-4.006,1.261-5.981,1.775a50.823,50.823,0,0,0-12.346,4.672,25.738,25.738,0,0,0-9.022,8.293,29.132,29.132,0,0,0-4.083,12.5c-1.181,9.375-1.948,18.788-2.842,28.194-.221,2.321-.455,4.641-.722,6.958a15,15,0,0,1-.547,3.308c-.388,1.1-.741,2.213-1.069,3.333-1.311,4.47-2.308,9.035-3.275,13.589-.979,4.605-1.873,9.23-2.73,13.86q-.643,3.474-1.249,6.954a21.848,21.848,0,0,1-.58,3.37c-.268.765.039.248-.44.543a4.367,4.367,0,0,1-.719.224,13.755,13.755,0,0,0-1.395.565,16.086,16.086,0,0,0-7.639,8.069c-.532,1.158-1.052,2.33-1.675,3.443-.606,1.081-1.564,1.8-2.253,2.82-1.025,1.52-.339,2.681,1.441,2.834a6.379,6.379,0,0,0,5.062-2.464c-.744,4.016-2.628,7.7-3.235,11.77-.218,1.464-.225,5.311,2.353,4.171,2.1-.93,3.05-4.527,3.793-6.469-.135,1.017-.275,2.033-.385,3.053-.228,2.1-.763,4.882.124,6.889a1.7,1.7,0,0,0,1.806,1.158c.959-.166,1.48-1.165,1.838-1.966a30.339,30.339,0,0,0,1.745-6.889c-.021,1.24-.2,9.738,3.059,7.467,1.191-.832,1.374-2.985,1.572-4.269.3-1.97.443-3.963.648-5.945.279,1.856.366,4.244,1.5,5.826,1.376,1.928,2.954.327,3.384-1.312a26.232,26.232,0,0,0,.534-6.63c0-1.093-.031-2.185-.08-3.277a31.282,31.282,0,0,1,.228-3.687,42.931,42.931,0,0,0,.007-7.191c-.05-.518-.114-1.034-.2-1.547a10.162,10.162,0,0,1-.348-1.557c.016-.847,1.144-2.315,1.581-3.164,2.128-4.133,4.395-8.281,6.116-12.6a120.033,120.033,0,0,0,4.215-13.563,87.247,87.247,0,0,0,2.761-13.733,24.089,24.089,0,0,1,.736-4.579q.855-3.013,1.707-6.024l3.2-11.307q.088,5.648.149,11.3c.05,4.82.259,9.694-.1,14.5-.406,5.37-1.119,10.72-1.747,16.068-.437,3.715-.886,7.43-1.308,11.147a267.019,267.019,0,0,0-1.226,30.437c0,5.046.039,10.1.3,15.138.27,5.166.9,10.306,1.318,15.462.408,5.1.753,10.21.926,15.324.139,4.1.386,8.395-.652,12.4-2.555,9.855-1.819,19.946-.682,29.929,1.16,10.178,2,20.41,2.59,30.635.146,2.549.278,5.1.336,7.655.038,1.654.431,4.014-.4,5.5a42.99,42.99,0,0,1-3.807,5.006c-1.465,1.9-2.708,3.929-4.3,5.73a36.193,36.193,0,0,0-4.418,5.56c-.951,1.636-1.6,3.809.013,5.27,1.631,1.482,4.3,1.471,6.368,1.634s4.453.416,6.408-.417c.116,1.936,2.124,2.172,3.65,2.224a5.708,5.708,0,0,0,4.608-1.668,14,14,0,0,0,2.73-4.766,6.425,6.425,0,0,1,1.032-2.158,16.892,16.892,0,0,0,1.674-2.2,12.788,12.788,0,0,0,1.706-10.69c-1.13-3.78-.812-7.748-.339-11.617.97-7.913,3.252-15.564,4.5-23.422,1.228-7.741,1.683-15.688,2.215-23.5.27-3.948.506-7.9.507-11.862,0-.957-.076-1.923-.05-2.879a11.874,11.874,0,0,1,.737-2.726c.518-1.836.913-3.705,1.258-5.581a115.791,115.791,0,0,0,1.7-15.33c.247-5,.495-10,.7-15.009.335-8.224.888-16.489.9-24.719q.005-3.02-.148-6.037a8.546,8.546,0,0,0,5.975,0c-.478,9.345.265,18.785.646,28.132q.305,7.473.673,14.944c.2,4.12.393,8.214.934,12.31a80.52,80.52,0,0,0,2.154,11.292,15.5,15.5,0,0,1,.745,2.5c.1,1-.059,2.091-.059,3.1,0,1.967.068,3.933.157,5.9.362,7.907,1.052,15.813,1.878,23.683.833,7.936,2.871,15.6,4.3,23.433a67.129,67.129,0,0,1,1.324,11.831,18.927,18.927,0,0,1-.77,5.556,12.047,12.047,0,0,0-.362,5.6,14.076,14.076,0,0,0,2.066,5.093,16.8,16.8,0,0,0,1.539,2.047,7.646,7.646,0,0,1,1.241,2.5c1.344,3.384,3.267,6.379,7.263,6.244,1.532-.051,3.553-.3,3.652-2.245,2.133.9,4.745.52,6.984.327,1.991-.171,4.813-.244,6.131-2.012,1.3-1.749.148-3.97-.9-5.525a59.216,59.216,0,0,0-4.474-5.384c-2.063-2.391-3.781-5.129-5.74-7.623a13.775,13.775,0,0,1-2-2.759,5.447,5.447,0,0,1-.243-1.984c-.032-1.25-.017-2.5.02-3.75.3-10.2,1.223-20.4,2.23-30.546,1.007-10.126,2.611-20.082,1.382-30.275-.5-4.152-1.839-8.109-1.96-12.3-.146-5.021.143-10.047.445-15.058.614-10.157,1.92-20.239,2.084-30.422q.127-7.776.02-15.555c-.064-5.061-.043-10.164-.448-15.212-.394-4.91-1.045-9.806-1.62-14.7-.489-4.156-1-8.309-1.46-12.468a124.791,124.791,0,0,1-.874-14.374c.016-5.129.082-10.258.153-15.385q.021-1.626.047-3.252l2.673,9.432q.941,3.325,1.884,6.649a31.622,31.622,0,0,1,.909,3.213c.335,1.967.306,4.019.636,6,.384,2.314.882,4.613,1.431,6.894,1.116,4.633,2.438,9.225,3.935,13.748a93.469,93.469,0,0,0,5.662,12.717q.8,1.577,1.608,3.15.354.688.71,1.376a9.582,9.582,0,0,1,.927,1.6,6.668,6.668,0,0,1-.366,1.527c-.107.585-.182,1.178-.238,1.769a34.574,34.574,0,0,0-.14,3.511c.012,2.606.46,5.21.356,7.8a46.328,46.328,0,0,0,.2,7.976c.188,1.405,1,4.93,3.148,3.343,1.679-1.24,1.728-4.5,2.006-6.363.2,1.908.334,3.825.615,5.723.2,1.335.367,3.625,1.606,4.491,3.254,2.272,3.079-6.233,3.059-7.466a32.219,32.219,0,0,0,1.664,6.705c.34.81.834,1.856,1.762,2.107a1.672,1.672,0,0,0,1.962-1.116c.86-1.951.367-4.641.146-6.683-.118-1.089-.262-2.174-.407-3.259.75,1.96,1.643,5.321,3.644,6.4,2.634,1.421,2.724-2.609,2.5-4.1-.606-4.067-2.49-7.754-3.234-11.77a6.921,6.921,0,0,0,4.1,2.441c.893.113,3.25-.045,2.957-1.524C903.192,367.694,901.862,366.828,901.065,365.839Z" transform="translate(0 0)"/><g transform="translate(751.697 172.663)"><path class="b" d="M817.255,306.066c-.134-.737-.185-1.974.723-2.245-1.953-1.245-2.778,2.992-1.605,4.123A1.644,1.644,0,0,0,819,306.016C819.144,306.225,817.631,308.131,817.255,306.066Z" transform="translate(-741.713 -152.282)"/><path class="b" d="M803.165,408.415c-2.768.6-6.13.224-7.994-2.115-1.924-2.417-2.389-5.848-2.633-8.829-1.093,4.338-.276,10.5,4.5,12.266,4.057,1.5,10.1-.15,10.846-5A7.481,7.481,0,0,1,803.165,408.415Z" transform="translate(-745.406 -137.669)"/><path class="b" d="M764.184,338.472a22.506,22.506,0,0,1-3.123,1.485c3.8.485,7.32-2.818,8.04-6.393A20,20,0,0,1,764.184,338.472Z" transform="translate(-750.239 -147.617)"/><path class="b" d="M839.292,408a8.274,8.274,0,0,1-10.525-3.254c.749,4.846,6.788,6.492,10.845,5,4.781-1.765,5.6-7.928,4.5-12.266C843.828,401.01,843.136,406.472,839.292,408Z" transform="translate(-739.7 -137.669)"/><path class="b" d="M903.323,369.062c-.132-1.368-1.462-2.234-2.258-3.223a16.49,16.49,0,0,1-1.833-3.475c-1.5-3.243-3.365-6.078-6.45-8.045a14.144,14.144,0,0,0-2.622-1.312c-.312-.118-1.219-.222-1.439-.446-.257-.263-.245-1.442-.306-1.8q-.6-3.481-1.228-6.957c-.856-4.708-1.753-9.411-2.726-14.1-.937-4.519-1.92-9.036-3.121-13.493-.572-2.122-1.638-4.34-1.9-6.505-.284-2.311-.534-4.628-.764-6.947-.935-9.413-1.654-18.842-2.792-28.234-.555-4.574-1.246-9.027-3.512-13.114a24.849,24.849,0,0,0-8.4-8.791,43.9,43.9,0,0,0-11.865-5.019c-4.015-1.134-8.392-1.394-10.915-5.144a16.238,16.238,0,0,1-2.26-5.727,24.427,24.427,0,0,1-.446-3.142c-.045-.579-.135-.873.265-1.27a15.369,15.369,0,0,1,1.423-1.04A31.821,31.821,0,0,0,848.194,222a43.884,43.884,0,0,0,5.437-22.048c-.061-5.7-.978-11.433-3.994-16.384-4.576-7.512-12.853-10.578-21.319-10.883-8.266-.3-16.992,2.492-22.007,9.374-3.551,4.872-4.919,11.011-4.989,16.957a46,46,0,0,0,4.671,21.6,32.35,32.35,0,0,0,7.424,9.548q1.108.964,2.3,1.82c.6.431.819.419.774,1.187q-.057.95-.186,1.894a19.4,19.4,0,0,1-1.766,6.046,9.622,9.622,0,0,1-3.8,4.2c-1.8,1-4.006,1.261-5.981,1.775a50.823,50.823,0,0,0-12.346,4.672,25.738,25.738,0,0,0-9.022,8.293,29.132,29.132,0,0,0-4.083,12.5c-1.181,9.376-1.948,18.788-2.842,28.194-.221,2.322-.455,4.641-.722,6.958a15,15,0,0,1-.547,3.308c-.388,1.1-.741,2.213-1.069,3.333-1.311,4.47-2.308,9.035-3.275,13.589-.979,4.605-1.873,9.23-2.73,13.86q-.643,3.474-1.249,6.954a21.979,21.979,0,0,1-.579,3.37c-.269.765.038.248-.441.543a4.367,4.367,0,0,1-.719.224,13.755,13.755,0,0,0-1.395.565,16.086,16.086,0,0,0-7.639,8.069c-.532,1.158-1.052,2.33-1.675,3.443-.606,1.081-1.564,1.8-2.253,2.82-1.025,1.52-.339,2.681,1.441,2.834a6.379,6.379,0,0,0,5.062-2.464c-.744,4.016-2.628,7.7-3.235,11.77-.218,1.464-.225,5.311,2.353,4.171,2.1-.93,3.05-4.527,3.793-6.469-.135,1.017-.275,2.033-.385,3.053-.228,2.1-.763,4.882.124,6.889a1.7,1.7,0,0,0,1.806,1.158c.959-.166,1.48-1.165,1.838-1.966a30.339,30.339,0,0,0,1.745-6.889c-.021,1.24-.2,9.738,3.059,7.467,1.191-.832,1.374-2.985,1.572-4.269.3-1.97.443-3.963.648-5.945.279,1.856.366,4.244,1.5,5.826,1.376,1.928,2.954.327,3.384-1.312a26.232,26.232,0,0,0,.534-6.63c0-1.093-.031-2.185-.08-3.277a31.036,31.036,0,0,1,.228-3.687,42.917,42.917,0,0,0,.007-7.189c-.05-.519-.114-1.035-.2-1.549a10.162,10.162,0,0,1-.348-1.557c.016-.847,1.144-2.315,1.582-3.164,2.126-4.133,4.394-8.281,6.115-12.6a120.033,120.033,0,0,0,4.215-13.563,87.247,87.247,0,0,0,2.761-13.733,24.089,24.089,0,0,1,.736-4.579q.855-3.013,1.707-6.024l3.2-11.307q.088,5.648.149,11.3c.05,4.82.259,9.694-.1,14.5-.406,5.37-1.119,10.72-1.747,16.068-.437,3.715-.886,7.43-1.308,11.147a267.019,267.019,0,0,0-1.226,30.437c0,5.046.039,10.1.3,15.138.27,5.166.9,10.306,1.318,15.462.408,5.1.753,10.21.926,15.324.139,4.1.386,8.395-.652,12.4-2.555,9.855-1.819,19.946-.682,29.929,1.16,10.178,2,20.41,2.589,30.635.147,2.549.28,5.1.338,7.655.038,1.654.431,4.014-.4,5.5a42.99,42.99,0,0,1-3.807,5.006c-1.465,1.9-2.708,3.929-4.3,5.73a36.193,36.193,0,0,0-4.418,5.56c-.951,1.636-1.6,3.809.013,5.27,1.631,1.482,4.3,1.471,6.368,1.634s4.453.416,6.408-.417c.116,1.936,2.124,2.172,3.65,2.224a5.708,5.708,0,0,0,4.608-1.668,14,14,0,0,0,2.73-4.766,6.425,6.425,0,0,1,1.032-2.158,16.892,16.892,0,0,0,1.674-2.2,12.788,12.788,0,0,0,1.706-10.69c-1.13-3.78-.812-7.748-.339-11.617.97-7.913,3.252-15.564,4.5-23.422,1.228-7.741,1.683-15.688,2.215-23.5.27-3.948.506-7.9.507-11.862,0-.957-.076-1.923-.05-2.879a11.874,11.874,0,0,1,.737-2.726c.518-1.836.913-3.705,1.258-5.581a115.791,115.791,0,0,0,1.7-15.33c.247-5,.495-10,.7-15.009.335-8.224.888-16.489.9-24.719q.005-3.02-.148-6.037a8.546,8.546,0,0,0,5.975,0c-.478,9.345.265,18.785.646,28.132q.305,7.473.673,14.944c.2,4.12.393,8.214.934,12.31a80.52,80.52,0,0,0,2.154,11.292,15.5,15.5,0,0,1,.745,2.5c.1,1-.059,2.091-.059,3.1,0,1.967.068,3.933.157,5.9.362,7.907,1.052,15.813,1.878,23.683.833,7.936,2.871,15.6,4.3,23.433a67.129,67.129,0,0,1,1.324,11.831,18.927,18.927,0,0,1-.77,5.556,12.047,12.047,0,0,0-.362,5.6,14.076,14.076,0,0,0,2.066,5.093,16.8,16.8,0,0,0,1.539,2.047,7.646,7.646,0,0,1,1.241,2.5c1.344,3.384,3.267,6.379,7.263,6.244,1.532-.051,3.553-.3,3.652-2.245,2.133.9,4.745.52,6.984.327,1.991-.171,4.813-.244,6.131-2.012,1.3-1.749.148-3.97-.9-5.525a59.408,59.408,0,0,0-4.474-5.384c-2.063-2.391-3.781-5.129-5.74-7.623a13.775,13.775,0,0,1-2-2.759,5.447,5.447,0,0,1-.243-1.984c-.032-1.25-.017-2.5.02-3.75.3-10.2,1.223-20.4,2.23-30.546,1.007-10.126,2.611-20.082,1.382-30.275-.5-4.152-1.839-8.109-1.96-12.3-.146-5.023.143-10.048.445-15.059.614-10.157,1.92-20.239,2.084-30.422q.127-7.776.02-15.555c-.064-5.061-.043-10.164-.448-15.212-.394-4.91-1.045-9.806-1.62-14.7-.489-4.156-1-8.309-1.46-12.468a124.791,124.791,0,0,1-.874-14.374c.016-5.129.082-10.258.153-15.385q.021-1.626.047-3.252l2.673,9.432q.941,3.325,1.884,6.649a31.705,31.705,0,0,1,.909,3.213c.335,1.967.306,4.019.636,6,.384,2.314.882,4.613,1.431,6.894,1.116,4.633,2.438,9.225,3.935,13.748a93.469,93.469,0,0,0,5.662,12.717q.8,1.577,1.608,3.15.354.688.71,1.376a9.629,9.629,0,0,1,.927,1.6,6.668,6.668,0,0,1-.366,1.527c-.107.585-.182,1.178-.238,1.77a34.538,34.538,0,0,0-.14,3.51c.012,2.606.46,5.21.356,7.8a46.328,46.328,0,0,0,.2,7.976c.188,1.405,1,4.93,3.148,3.343,1.679-1.24,1.728-4.5,2.006-6.363.2,1.908.334,3.825.615,5.723.2,1.335.367,3.625,1.606,4.491,3.254,2.272,3.079-6.233,3.059-7.466a32.219,32.219,0,0,0,1.664,6.705c.34.81.834,1.856,1.762,2.107a1.672,1.672,0,0,0,1.962-1.116c.86-1.951.367-4.641.146-6.683-.118-1.089-.262-2.174-.407-3.259.75,1.96,1.643,5.321,3.644,6.4,2.634,1.421,2.724-2.609,2.5-4.1-.606-4.067-2.49-7.754-3.234-11.77a6.921,6.921,0,0,0,4.1,2.441C901.259,370.7,903.616,370.541,903.323,369.062Zm-93.307-145.5c-5.643-8.068-7.355-18.555-6.369-28.211.57-5.586,2.888-11.283,7.188-15.02,4.75-4.129,11.339-5.532,17.5-5.336s12.441,1.833,16.861,6.365c3.854,3.95,5.647,9.381,6.177,14.774.967,9.843-1.2,20.76-7.362,28.667a29.153,29.153,0,0,1-7.412,6.733c-2.827,1.784-6.483,3.447-9.908,3.136C819.964,234.06,813.749,228.9,810.016,223.559ZM768.945,386.13Zm117.052,0Zm15.338-16.935c-1.783.207-3.3-1.13-4.352-2.4-.5-.606-.853-1.426-1.384-1.988a.731.731,0,0,0-1.328.505,24.764,24.764,0,0,0,.833,4.576c.492,2.7,1.775,5.239,2.443,7.912.148.588,1.252,4.684.337,4.943-.877.248-2.215-3.378-2.465-3.981-.547-1.323-1.026-2.671-1.538-4.007-.28-.729-.58-2.133-1.438-2.339-1.854-.445-.825,3.736-.692,4.73a56.955,56.955,0,0,1,.742,7.379c0,.533.144,2.126-.326,2.54-.38.335-.695-.645-.852-1.01a26.828,26.828,0,0,1-1.454-5.622c-.275-1.442-.515-2.891-.808-4.33a5.476,5.476,0,0,0-.587-2,.9.9,0,0,0-1.624.128,6.552,6.552,0,0,0-.177,2.636c.017,1.156.061,2.313.073,3.469.012,1.069,0,2.141-.081,3.209-.043.546-.06,2.233-.638,2.569-.649-.579-.756-2.05-.892-2.853-.216-1.278-.346-2.568-.469-3.856a39.856,39.856,0,0,0-.483-4.194c-.162-.781-.626-2.047-1.676-1.408-.772.47-.821,1.877-.945,2.668-.191,1.2-.328,2.411-.594,3.6-.1.458-.394,2.237-1.011,2.3-.594-.23-.7-2.3-.758-2.819a36.419,36.419,0,0,1-.2-3.706c-.017-1.372.01-2.744.072-4.114a33.668,33.668,0,0,0-.244-3.915,36.07,36.07,0,0,1,.147-8.075,16.926,16.926,0,0,1,1-3.446c.14-.369.418-.928-.155-1.128-.545-.19-1.022.576-1.249.956-2.671-5.441-5.641-10.929-7.487-16.715a153.646,153.646,0,0,1-4.548-17.746,56.962,56.962,0,0,1-1.134-8.909,5.628,5.628,0,0,0-.262-1.805q-.986-2.969-1.975-5.94-2.557-7.686-5.113-15.375a11.668,11.668,0,0,1-.324-4.095,15.111,15.111,0,0,1,.347-4.155c.172-.572,1.534-2.705.93-3.054-.747-.431-2.332,1.348-2.681,1.84-1.4,1.968-1.046,4.708-1.086,7.018q-.068,3.763-.133,7.526c-.1,5.716-.188,11.432-.214,17.148a139.8,139.8,0,0,0,1.183,17.119c.56,4.731,1.146,9.459,1.721,14.189.341,2.812.69,5.622.967,8.441.6,6.108.587,12.293.677,18.424.09,6.186.133,12.381-.047,18.566-.178,6.1-.884,12.156-1.329,18.238-.448,6.118-.847,12.262-.875,18.4a36.179,36.179,0,0,0,.576,8.821,65.781,65.781,0,0,1,1.418,6.806c1.7,12.11-.565,24.175-1.623,36.237-.55,6.268-1.036,12.544-1.379,18.826-.17,3.09-.34,6.192-.3,9.287a8.675,8.675,0,0,0,.4,3.541,13.217,13.217,0,0,0,1.607,2.285c.735.937,1.486,1.862,2.228,2.792,1.351,1.693,2.486,3.556,3.88,5.209,1.735,2.057,3.756,3.925,5.167,6.237.519.849,1.264,2.169.617,3.131-.685,1.018-2.42,1.182-3.514,1.324-1.313.171-2.645.3-3.967.357s-3.009.2-4.2-.492c-.709-.411-1.216-2.12-2.055-2.028-1.3.142-.154,1.6.07,2.05.572,1.153.35,2.031-1,2.151a5.119,5.119,0,0,1-3.536-.721c-2.17-1.643-2.248-4.5-3.2-6.8-.334-.808-1.363-1.343-1.969-1.973a11.842,11.842,0,0,1-2.143-3.064,9.708,9.708,0,0,1-.565-7.015c1.441-5.023.853-10.317.208-15.436-.739-5.853-1.9-11.633-2.938-17.437-1.063-5.934-1.465-12-1.944-18.005-.492-6.182-.938-12.384-1.1-18.584-.038-1.452-.013-2.9,0-4.35a9.531,9.531,0,0,0-.656-2.72,64.692,64.692,0,0,1-1.706-8.674c-.8-5.669-1.089-11.331-1.375-17.039-.462-9.207-.981-18.411-1.44-27.617-.148-2.956-.3-5.911-.567-8.859q-.1-1.123-.224-2.247a11.23,11.23,0,0,1-.266-2.245c.061-.528-.161-.2.238-.644.225-.251.574-.429.817-.675a3.873,3.873,0,0,0,.935-1.456,16.081,16.081,0,0,1-12.4,0,3.88,3.88,0,0,0,.934,1.46c.235.238.611.424.817.676.348.426.206-.173.239.643a40.368,40.368,0,0,1-.532,4.94c-.26,2.943-.4,5.9-.548,8.847q-.163,3.266-.341,6.529-.366,6.856-.729,13.712-.335,6.487-.651,12.973c-.2,3.974-.608,7.927-1.2,11.864a54.934,54.934,0,0,1-1.8,8.538,6.85,6.85,0,0,0-.423,2.641c.031,1.528.006,3.057-.045,4.583-.207,6.215-.644,12.427-1.146,18.625a179.177,179.177,0,0,1-2.021,17.921c-1.1,5.957-2.259,11.908-2.947,17.931a61.362,61.362,0,0,0-.508,8.844,24.911,24.911,0,0,0,.974,5.613A9.739,9.739,0,0,1,810.265,520a12.114,12.114,0,0,1-2.225,2.766c-.884.816-1.361,1.1-1.663,2.257-.576,2.211-1.44,5.575-3.838,6.488a5.924,5.924,0,0,1-3.16.19c-1.569-.41-.607-1.832-.122-2.763.322-.621.18-1.825-.807-1.268-.406.229-.611.95-.9,1.3a2.861,2.861,0,0,1-1.7.948c-2.509.541-5.665.062-8.158-.418-.937-.18-2.4-.506-2.658-1.6-.265-1.155.768-2.551,1.385-3.413,1.616-2.262,3.725-4.109,5.376-6.338,1.9-2.571,3.883-5.072,5.81-7.626a7.612,7.612,0,0,0,1.347-2.181,14.365,14.365,0,0,0,.235-4.131c-.016-3.043-.193-6.088-.372-9.125-.358-6.081-.846-12.153-1.4-18.219-.558-6.133-1.37-12.236-1.958-18.363a75.091,75.091,0,0,1,.369-18.077c.331-2.241.9-4.4,1.41-6.6a38.887,38.887,0,0,0,.515-9.045c-.051-6.135-.452-12.277-.907-18.394-.459-6.161-1.159-12.3-1.319-18.476s-.117-12.381-.02-18.568c.1-6.053.1-12.151.715-18.179.577-5.673,1.33-11.334,2.018-16.994a182.924,182.924,0,0,0,1.811-23.233c-.051-7.986-.2-15.971-.343-23.956-.042-2.427.305-5.237-1.383-7.206-.314-.366-2.139-2.107-2.573-1.23-.155.313.457,1.148.584,1.433a10.059,10.059,0,0,1,.714,2.072,21.521,21.521,0,0,1,.178,3.9,10.593,10.593,0,0,1-.4,3.888q-1.154,3.474-2.31,6.948c-1.587,4.772-3.3,9.522-4.766,14.333a10.216,10.216,0,0,0-.244,2.515,65.57,65.57,0,0,1-1.314,9.14,152.131,152.131,0,0,1-4.457,17.033c-1.827,5.638-4.752,11.005-7.358,16.314-.225-.374-.735-1.183-1.29-.94-.44.194-.288.6-.19.94a28.472,28.472,0,0,1,1.038,3.414,35.615,35.615,0,0,1,.181,8.279,31.06,31.06,0,0,0-.254,3.7c.064,1.369.1,2.741.084,4.112-.012,1.244-.047,2.49-.178,3.726-.06.574-.144,2.767-.78,3.016-.58-.061-.869-1.691-.968-2.114-.276-1.179-.423-2.385-.606-3.581-.127-.829-.156-2.222-.868-2.8-1.056-.86-1.622.55-1.784,1.336a37.6,37.6,0,0,0-.462,3.977c-.125,1.291-.246,2.584-.455,3.865-.14.861-.231,2.442-.928,3.063-.463-.27-.53-1.544-.581-1.97a25.79,25.79,0,0,1-.141-2.943c-.009-2,.214-4.038.059-6.034-.128-1.662-1.532-2.063-2.07-.331a25.01,25.01,0,0,0-.591,2.786c-.374,2-.7,4-1.2,5.976a15.985,15.985,0,0,1-.772,2.457c-.212.489-.471,1.412-.9.911s-.277-1.825-.276-2.441a30.987,30.987,0,0,1,.213-3.206c.1-.972.231-1.938.361-2.906q.128-.96.255-1.92c.133-1,.572-2.451.258-3.406-.552-1.676-1.788-.035-2.122.758-.365.869-.677,1.764-1.008,2.646a26.432,26.432,0,0,1-2.359,5.271c-.206.316-.684,1.155-1.07.889-.465-.32-.125-2.092-.062-2.514a34.42,34.42,0,0,1,1.427-5.6c.421-1.3,1.032-2.588,1.361-3.911.229-.924.344-1.894.515-2.83a13.8,13.8,0,0,0,.451-2.473c-.009-.629-.519-1.094-1.131-.729s-1.009,1.484-1.455,2.042c-1.108,1.387-3.071,3.194-5.028,2.425a6.71,6.71,0,0,1,1.575-1.989,9.53,9.53,0,0,0,1.418-2.213c.667-1.312,1.19-2.7,1.864-4a14.331,14.331,0,0,1,8.854-7.1,4.093,4.093,0,0,0,1.5-.5c.66-.638-.186-.914-.721-.884,1.854-9.518,3.843-19.022,6.211-28.427.574-2.278,1.171-4.55,1.829-6.8.6-2.054,1.476-4.04,2.054-6.09a37.754,37.754,0,0,0,.71-6.643c.218-2.42.41-4.842.6-7.264.372-4.833.734-9.667,1.17-14.494.421-4.679.636-9.534,1.635-14.133,1.9-8.746,8.233-14.576,16.313-17.835a65.356,65.356,0,0,1,7.252-2.37c2.278-.623,4.706-.968,6.689-2.333,4-2.755,5.319-8.206,5.528-12.785,2.918,1.788,6.46,3.317,9.941,3.306s7.01-1.512,9.941-3.306c.187,4.141,1.257,8.917,4.39,11.87a11.379,11.379,0,0,0,5.291,2.581c2.23.572,4.457,1.168,6.645,1.893,8.087,2.68,15.5,7.382,18.519,15.723,1.586,4.373,1.783,9.183,2.232,13.774.471,4.821.864,9.651,1.232,14.482.37,4.846.729,9.694,1.221,14.53a20.548,20.548,0,0,0,.329,2.871c.25.994.73,1.965,1.06,2.94.737,2.182,1.359,4.4,1.958,6.624,2.833,10.512,5.029,21.211,7.11,31.893-.475-.027-1.3.149-.82.829.244.341,1.054.4,1.405.5a15.5,15.5,0,0,1,3.689,1.537,14.72,14.72,0,0,1,5.358,5.622c.641,1.241,1.142,2.559,1.768,3.81a9.832,9.832,0,0,0,1.468,2.359,6.836,6.836,0,0,1,1.621,2.035A2.664,2.664,0,0,1,901.336,369.195Z" transform="translate(-751.697 -172.663)"/><path class="b" d="M871.524,338.537a20.959,20.959,0,0,1-5.013-4.973c.721,3.576,4.241,6.879,8.041,6.393A20.121,20.121,0,0,1,871.524,338.537Z" transform="translate(-733.825 -147.617)"/></g></g></svg>